<?xml version="1.0" encoding="utf-8" standalone="no"?>
<!DOCTYPE svg PUBLIC "-//W3C//DTD SVG 1.1//EN"
  "http://www.w3.org/Graphics/SVG/1.1/DTD/svg11.dtd">
<svg height="432pt" version="1.1" viewBox="0 0 648 432" width="648pt" xmlns="http://www.w3.org/2000/svg" xmlns:xlink="http://www.w3.org/1999/xlink">
 <metadata>
  <rdf:RDF xmlns:cc="http://creativecommons.org/ns#" xmlns:dc="http://purl.org/dc/elements/1.1/" xmlns:rdf="http://www.w3.org/1999/02/22-rdf-syntax-ns#">
   <cc:Work>
    <dc:type rdf:resource="http://purl.org/dc/dcmitype/StillImage"/>
    <dc:date>2023-05-02T20:24:04.629675</dc:date>
    <dc:format>image/svg+xml</dc:format>
    <dc:creator>
     <cc:Agent>
      <dc:title>Matplotlib v3.4.3, https://matplotlib.org/</dc:title>
     </cc:Agent>
    </dc:creator>
   </cc:Work>
  </rdf:RDF>
 </metadata>
 <defs>
  <style type="text/css">*{stroke-linecap:butt;stroke-linejoin:round;}</style>
 </defs>
 <g id="figure_1">
  <g id="patch_1">
   <path d="M 0 432 
L 648 432 
L 648 0 
L 0 0 
z
" style="fill:#ffffff;"/>
  </g>
  <g id="axes_1">
   <g id="patch_2">
    <path d="M 47.38125 390.84375 
L 629.248438 390.84375 
L 629.248438 14.599219 
L 47.38125 14.599219 
z
" style="fill:#ffffff;"/>
   </g>
   <g id="matplotlib.axis_1">
    <g id="xtick_1">
     <g id="line2d_1">
      <defs>
       <path d="M 0 0 
L 0 3.5 
" id="m71d59188ed" style="stroke:#000000;stroke-width:0.8;"/>
      </defs>
      <g>
       <use style="stroke:#000000;stroke-width:0.8;" x="47.38125" xlink:href="#m71d59188ed" y="390.84375"/>
      </g>
     </g>
     <g id="text_1">
      <!-- 0.0 -->
      <g transform="translate(39.429688 405.442187)scale(0.1 -0.1)">
       <defs>
        <path d="M 2034 4250 
Q 1547 4250 1301 3770 
Q 1056 3291 1056 2328 
Q 1056 1369 1301 889 
Q 1547 409 2034 409 
Q 2525 409 2770 889 
Q 3016 1369 3016 2328 
Q 3016 3291 2770 3770 
Q 2525 4250 2034 4250 
z
M 2034 4750 
Q 2819 4750 3233 4129 
Q 3647 3509 3647 2328 
Q 3647 1150 3233 529 
Q 2819 -91 2034 -91 
Q 1250 -91 836 529 
Q 422 1150 422 2328 
Q 422 3509 836 4129 
Q 1250 4750 2034 4750 
z
" id="DejaVuSans-30" transform="scale(0.015625)"/>
        <path d="M 684 794 
L 1344 794 
L 1344 0 
L 684 0 
L 684 794 
z
" id="DejaVuSans-2e" transform="scale(0.015625)"/>
       </defs>
       <use xlink:href="#DejaVuSans-30"/>
       <use x="63.623047" xlink:href="#DejaVuSans-2e"/>
       <use x="95.410156" xlink:href="#DejaVuSans-30"/>
      </g>
     </g>
    </g>
    <g id="xtick_2">
     <g id="line2d_2">
      <g>
       <use style="stroke:#000000;stroke-width:0.8;" x="163.754688" xlink:href="#m71d59188ed" y="390.84375"/>
      </g>
     </g>
     <g id="text_2">
      <!-- 0.2 -->
      <g transform="translate(155.803125 405.442187)scale(0.1 -0.1)">
       <defs>
        <path d="M 1228 531 
L 3431 531 
L 3431 0 
L 469 0 
L 469 531 
Q 828 903 1448 1529 
Q 2069 2156 2228 2338 
Q 2531 2678 2651 2914 
Q 2772 3150 2772 3378 
Q 2772 3750 2511 3984 
Q 2250 4219 1831 4219 
Q 1534 4219 1204 4116 
Q 875 4013 500 3803 
L 500 4441 
Q 881 4594 1212 4672 
Q 1544 4750 1819 4750 
Q 2544 4750 2975 4387 
Q 3406 4025 3406 3419 
Q 3406 3131 3298 2873 
Q 3191 2616 2906 2266 
Q 2828 2175 2409 1742 
Q 1991 1309 1228 531 
z
" id="DejaVuSans-32" transform="scale(0.015625)"/>
       </defs>
       <use xlink:href="#DejaVuSans-30"/>
       <use x="63.623047" xlink:href="#DejaVuSans-2e"/>
       <use x="95.410156" xlink:href="#DejaVuSans-32"/>
      </g>
     </g>
    </g>
    <g id="xtick_3">
     <g id="line2d_3">
      <g>
       <use style="stroke:#000000;stroke-width:0.8;" x="280.128125" xlink:href="#m71d59188ed" y="390.84375"/>
      </g>
     </g>
     <g id="text_3">
      <!-- 0.4 -->
      <g transform="translate(272.176562 405.442187)scale(0.1 -0.1)">
       <defs>
        <path d="M 2419 4116 
L 825 1625 
L 2419 1625 
L 2419 4116 
z
M 2253 4666 
L 3047 4666 
L 3047 1625 
L 3713 1625 
L 3713 1100 
L 3047 1100 
L 3047 0 
L 2419 0 
L 2419 1100 
L 313 1100 
L 313 1709 
L 2253 4666 
z
" id="DejaVuSans-34" transform="scale(0.015625)"/>
       </defs>
       <use xlink:href="#DejaVuSans-30"/>
       <use x="63.623047" xlink:href="#DejaVuSans-2e"/>
       <use x="95.410156" xlink:href="#DejaVuSans-34"/>
      </g>
     </g>
    </g>
    <g id="xtick_4">
     <g id="line2d_4">
      <g>
       <use style="stroke:#000000;stroke-width:0.8;" x="396.501563" xlink:href="#m71d59188ed" y="390.84375"/>
      </g>
     </g>
     <g id="text_4">
      <!-- 0.6 -->
      <g transform="translate(388.55 405.442187)scale(0.1 -0.1)">
       <defs>
        <path d="M 2113 2584 
Q 1688 2584 1439 2293 
Q 1191 2003 1191 1497 
Q 1191 994 1439 701 
Q 1688 409 2113 409 
Q 2538 409 2786 701 
Q 3034 994 3034 1497 
Q 3034 2003 2786 2293 
Q 2538 2584 2113 2584 
z
M 3366 4563 
L 3366 3988 
Q 3128 4100 2886 4159 
Q 2644 4219 2406 4219 
Q 1781 4219 1451 3797 
Q 1122 3375 1075 2522 
Q 1259 2794 1537 2939 
Q 1816 3084 2150 3084 
Q 2853 3084 3261 2657 
Q 3669 2231 3669 1497 
Q 3669 778 3244 343 
Q 2819 -91 2113 -91 
Q 1303 -91 875 529 
Q 447 1150 447 2328 
Q 447 3434 972 4092 
Q 1497 4750 2381 4750 
Q 2619 4750 2861 4703 
Q 3103 4656 3366 4563 
z
" id="DejaVuSans-36" transform="scale(0.015625)"/>
       </defs>
       <use xlink:href="#DejaVuSans-30"/>
       <use x="63.623047" xlink:href="#DejaVuSans-2e"/>
       <use x="95.410156" xlink:href="#DejaVuSans-36"/>
      </g>
     </g>
    </g>
    <g id="xtick_5">
     <g id="line2d_5">
      <g>
       <use style="stroke:#000000;stroke-width:0.8;" x="512.875" xlink:href="#m71d59188ed" y="390.84375"/>
      </g>
     </g>
     <g id="text_5">
      <!-- 0.8 -->
      <g transform="translate(504.923437 405.442187)scale(0.1 -0.1)">
       <defs>
        <path d="M 2034 2216 
Q 1584 2216 1326 1975 
Q 1069 1734 1069 1313 
Q 1069 891 1326 650 
Q 1584 409 2034 409 
Q 2484 409 2743 651 
Q 3003 894 3003 1313 
Q 3003 1734 2745 1975 
Q 2488 2216 2034 2216 
z
M 1403 2484 
Q 997 2584 770 2862 
Q 544 3141 544 3541 
Q 544 4100 942 4425 
Q 1341 4750 2034 4750 
Q 2731 4750 3128 4425 
Q 3525 4100 3525 3541 
Q 3525 3141 3298 2862 
Q 3072 2584 2669 2484 
Q 3125 2378 3379 2068 
Q 3634 1759 3634 1313 
Q 3634 634 3220 271 
Q 2806 -91 2034 -91 
Q 1263 -91 848 271 
Q 434 634 434 1313 
Q 434 1759 690 2068 
Q 947 2378 1403 2484 
z
M 1172 3481 
Q 1172 3119 1398 2916 
Q 1625 2713 2034 2713 
Q 2441 2713 2670 2916 
Q 2900 3119 2900 3481 
Q 2900 3844 2670 4047 
Q 2441 4250 2034 4250 
Q 1625 4250 1398 4047 
Q 1172 3844 1172 3481 
z
" id="DejaVuSans-38" transform="scale(0.015625)"/>
       </defs>
       <use xlink:href="#DejaVuSans-30"/>
       <use x="63.623047" xlink:href="#DejaVuSans-2e"/>
       <use x="95.410156" xlink:href="#DejaVuSans-38"/>
      </g>
     </g>
    </g>
    <g id="xtick_6">
     <g id="line2d_6">
      <g>
       <use style="stroke:#000000;stroke-width:0.8;" x="629.248438" xlink:href="#m71d59188ed" y="390.84375"/>
      </g>
     </g>
     <g id="text_6">
      <!-- 1.0 -->
      <g transform="translate(621.296875 405.442187)scale(0.1 -0.1)">
       <defs>
        <path d="M 794 531 
L 1825 531 
L 1825 4091 
L 703 3866 
L 703 4441 
L 1819 4666 
L 2450 4666 
L 2450 531 
L 3481 531 
L 3481 0 
L 794 0 
L 794 531 
z
" id="DejaVuSans-31" transform="scale(0.015625)"/>
       </defs>
       <use xlink:href="#DejaVuSans-31"/>
       <use x="63.623047" xlink:href="#DejaVuSans-2e"/>
       <use x="95.410156" xlink:href="#DejaVuSans-30"/>
      </g>
     </g>
    </g>
    <g id="text_7">
     <!-- Confidence -->
     <g transform="translate(310.200781 419.120313)scale(0.1 -0.1)">
      <defs>
       <path d="M 4122 4306 
L 4122 3641 
Q 3803 3938 3442 4084 
Q 3081 4231 2675 4231 
Q 1875 4231 1450 3742 
Q 1025 3253 1025 2328 
Q 1025 1406 1450 917 
Q 1875 428 2675 428 
Q 3081 428 3442 575 
Q 3803 722 4122 1019 
L 4122 359 
Q 3791 134 3420 21 
Q 3050 -91 2638 -91 
Q 1578 -91 968 557 
Q 359 1206 359 2328 
Q 359 3453 968 4101 
Q 1578 4750 2638 4750 
Q 3056 4750 3426 4639 
Q 3797 4528 4122 4306 
z
" id="DejaVuSans-43" transform="scale(0.015625)"/>
       <path d="M 1959 3097 
Q 1497 3097 1228 2736 
Q 959 2375 959 1747 
Q 959 1119 1226 758 
Q 1494 397 1959 397 
Q 2419 397 2687 759 
Q 2956 1122 2956 1747 
Q 2956 2369 2687 2733 
Q 2419 3097 1959 3097 
z
M 1959 3584 
Q 2709 3584 3137 3096 
Q 3566 2609 3566 1747 
Q 3566 888 3137 398 
Q 2709 -91 1959 -91 
Q 1206 -91 779 398 
Q 353 888 353 1747 
Q 353 2609 779 3096 
Q 1206 3584 1959 3584 
z
" id="DejaVuSans-6f" transform="scale(0.015625)"/>
       <path d="M 3513 2113 
L 3513 0 
L 2938 0 
L 2938 2094 
Q 2938 2591 2744 2837 
Q 2550 3084 2163 3084 
Q 1697 3084 1428 2787 
Q 1159 2491 1159 1978 
L 1159 0 
L 581 0 
L 581 3500 
L 1159 3500 
L 1159 2956 
Q 1366 3272 1645 3428 
Q 1925 3584 2291 3584 
Q 2894 3584 3203 3211 
Q 3513 2838 3513 2113 
z
" id="DejaVuSans-6e" transform="scale(0.015625)"/>
       <path d="M 2375 4863 
L 2375 4384 
L 1825 4384 
Q 1516 4384 1395 4259 
Q 1275 4134 1275 3809 
L 1275 3500 
L 2222 3500 
L 2222 3053 
L 1275 3053 
L 1275 0 
L 697 0 
L 697 3053 
L 147 3053 
L 147 3500 
L 697 3500 
L 697 3744 
Q 697 4328 969 4595 
Q 1241 4863 1831 4863 
L 2375 4863 
z
" id="DejaVuSans-66" transform="scale(0.015625)"/>
       <path d="M 603 3500 
L 1178 3500 
L 1178 0 
L 603 0 
L 603 3500 
z
M 603 4863 
L 1178 4863 
L 1178 4134 
L 603 4134 
L 603 4863 
z
" id="DejaVuSans-69" transform="scale(0.015625)"/>
       <path d="M 2906 2969 
L 2906 4863 
L 3481 4863 
L 3481 0 
L 2906 0 
L 2906 525 
Q 2725 213 2448 61 
Q 2172 -91 1784 -91 
Q 1150 -91 751 415 
Q 353 922 353 1747 
Q 353 2572 751 3078 
Q 1150 3584 1784 3584 
Q 2172 3584 2448 3432 
Q 2725 3281 2906 2969 
z
M 947 1747 
Q 947 1113 1208 752 
Q 1469 391 1925 391 
Q 2381 391 2643 752 
Q 2906 1113 2906 1747 
Q 2906 2381 2643 2742 
Q 2381 3103 1925 3103 
Q 1469 3103 1208 2742 
Q 947 2381 947 1747 
z
" id="DejaVuSans-64" transform="scale(0.015625)"/>
       <path d="M 3597 1894 
L 3597 1613 
L 953 1613 
Q 991 1019 1311 708 
Q 1631 397 2203 397 
Q 2534 397 2845 478 
Q 3156 559 3463 722 
L 3463 178 
Q 3153 47 2828 -22 
Q 2503 -91 2169 -91 
Q 1331 -91 842 396 
Q 353 884 353 1716 
Q 353 2575 817 3079 
Q 1281 3584 2069 3584 
Q 2775 3584 3186 3129 
Q 3597 2675 3597 1894 
z
M 3022 2063 
Q 3016 2534 2758 2815 
Q 2500 3097 2075 3097 
Q 1594 3097 1305 2825 
Q 1016 2553 972 2059 
L 3022 2063 
z
" id="DejaVuSans-65" transform="scale(0.015625)"/>
       <path d="M 3122 3366 
L 3122 2828 
Q 2878 2963 2633 3030 
Q 2388 3097 2138 3097 
Q 1578 3097 1268 2742 
Q 959 2388 959 1747 
Q 959 1106 1268 751 
Q 1578 397 2138 397 
Q 2388 397 2633 464 
Q 2878 531 3122 666 
L 3122 134 
Q 2881 22 2623 -34 
Q 2366 -91 2075 -91 
Q 1284 -91 818 406 
Q 353 903 353 1747 
Q 353 2603 823 3093 
Q 1294 3584 2113 3584 
Q 2378 3584 2631 3529 
Q 2884 3475 3122 3366 
z
" id="DejaVuSans-63" transform="scale(0.015625)"/>
      </defs>
      <use xlink:href="#DejaVuSans-43"/>
      <use x="69.824219" xlink:href="#DejaVuSans-6f"/>
      <use x="131.005859" xlink:href="#DejaVuSans-6e"/>
      <use x="194.384766" xlink:href="#DejaVuSans-66"/>
      <use x="229.589844" xlink:href="#DejaVuSans-69"/>
      <use x="257.373047" xlink:href="#DejaVuSans-64"/>
      <use x="320.849609" xlink:href="#DejaVuSans-65"/>
      <use x="382.373047" xlink:href="#DejaVuSans-6e"/>
      <use x="445.751953" xlink:href="#DejaVuSans-63"/>
      <use x="500.732422" xlink:href="#DejaVuSans-65"/>
     </g>
    </g>
   </g>
   <g id="matplotlib.axis_2">
    <g id="ytick_1">
     <g id="line2d_7">
      <defs>
       <path d="M 0 0 
L -3.5 0 
" id="m067c892ce4" style="stroke:#000000;stroke-width:0.8;"/>
      </defs>
      <g>
       <use style="stroke:#000000;stroke-width:0.8;" x="47.38125" xlink:href="#m067c892ce4" y="390.84375"/>
      </g>
     </g>
     <g id="text_8">
      <!-- 0.0 -->
      <g transform="translate(24.478125 394.642969)scale(0.1 -0.1)">
       <use xlink:href="#DejaVuSans-30"/>
       <use x="63.623047" xlink:href="#DejaVuSans-2e"/>
       <use x="95.410156" xlink:href="#DejaVuSans-30"/>
      </g>
     </g>
    </g>
    <g id="ytick_2">
     <g id="line2d_8">
      <g>
       <use style="stroke:#000000;stroke-width:0.8;" x="47.38125" xlink:href="#m067c892ce4" y="315.594844"/>
      </g>
     </g>
     <g id="text_9">
      <!-- 0.2 -->
      <g transform="translate(24.478125 319.394063)scale(0.1 -0.1)">
       <use xlink:href="#DejaVuSans-30"/>
       <use x="63.623047" xlink:href="#DejaVuSans-2e"/>
       <use x="95.410156" xlink:href="#DejaVuSans-32"/>
      </g>
     </g>
    </g>
    <g id="ytick_3">
     <g id="line2d_9">
      <g>
       <use style="stroke:#000000;stroke-width:0.8;" x="47.38125" xlink:href="#m067c892ce4" y="240.345938"/>
      </g>
     </g>
     <g id="text_10">
      <!-- 0.4 -->
      <g transform="translate(24.478125 244.145156)scale(0.1 -0.1)">
       <use xlink:href="#DejaVuSans-30"/>
       <use x="63.623047" xlink:href="#DejaVuSans-2e"/>
       <use x="95.410156" xlink:href="#DejaVuSans-34"/>
      </g>
     </g>
    </g>
    <g id="ytick_4">
     <g id="line2d_10">
      <g>
       <use style="stroke:#000000;stroke-width:0.8;" x="47.38125" xlink:href="#m067c892ce4" y="165.097031"/>
      </g>
     </g>
     <g id="text_11">
      <!-- 0.6 -->
      <g transform="translate(24.478125 168.89625)scale(0.1 -0.1)">
       <use xlink:href="#DejaVuSans-30"/>
       <use x="63.623047" xlink:href="#DejaVuSans-2e"/>
       <use x="95.410156" xlink:href="#DejaVuSans-36"/>
      </g>
     </g>
    </g>
    <g id="ytick_5">
     <g id="line2d_11">
      <g>
       <use style="stroke:#000000;stroke-width:0.8;" x="47.38125" xlink:href="#m067c892ce4" y="89.848125"/>
      </g>
     </g>
     <g id="text_12">
      <!-- 0.8 -->
      <g transform="translate(24.478125 93.647344)scale(0.1 -0.1)">
       <use xlink:href="#DejaVuSans-30"/>
       <use x="63.623047" xlink:href="#DejaVuSans-2e"/>
       <use x="95.410156" xlink:href="#DejaVuSans-38"/>
      </g>
     </g>
    </g>
    <g id="ytick_6">
     <g id="line2d_12">
      <g>
       <use style="stroke:#000000;stroke-width:0.8;" x="47.38125" xlink:href="#m067c892ce4" y="14.599219"/>
      </g>
     </g>
     <g id="text_13">
      <!-- 1.0 -->
      <g transform="translate(24.478125 18.398438)scale(0.1 -0.1)">
       <use xlink:href="#DejaVuSans-31"/>
       <use x="63.623047" xlink:href="#DejaVuSans-2e"/>
       <use x="95.410156" xlink:href="#DejaVuSans-30"/>
      </g>
     </g>
    </g>
    <g id="text_14">
     <!-- F1 -->
     <g transform="translate(18.398438 208.778516)rotate(-90)scale(0.1 -0.1)">
      <defs>
       <path d="M 628 4666 
L 3309 4666 
L 3309 4134 
L 1259 4134 
L 1259 2759 
L 3109 2759 
L 3109 2228 
L 1259 2228 
L 1259 0 
L 628 0 
L 628 4666 
z
" id="DejaVuSans-46" transform="scale(0.015625)"/>
      </defs>
      <use xlink:href="#DejaVuSans-46"/>
      <use x="57.519531" xlink:href="#DejaVuSans-31"/>
     </g>
    </g>
   </g>
   <g id="line2d_13">
    <path clip-path="url(#p88362863a9)" d="M 47.38125 205.663511 
L 56.700444 130.155006 
L 63.10739 77.566541 
L 63.68984 74.033724 
L 64.272289 71.895188 
L 64.854739 70.412877 
L 66.019638 68.370949 
L 67.184538 66.950927 
L 68.349437 65.869899 
L 70.096786 64.592429 
L 71.844135 63.55757 
L 74.173933 62.459254 
L 77.668631 61.147873 
L 81.745779 59.88118 
L 88.152725 58.182242 
L 92.812322 57.131376 
L 99.219268 55.997955 
L 107.956012 54.701047 
L 114.945408 53.857712 
L 124.847052 53.003042 
L 135.331145 52.24853 
L 156.299332 51.221359 
L 191.24631 49.669892 
L 220.368792 48.43964 
L 248.908824 47.174951 
L 266.382314 46.703597 
L 310.066036 45.749156 
L 349.090162 45.634265 
L 388.696737 45.231542 
L 401.510629 45.323633 
L 413.742072 45.360688 
L 428.885762 45.169347 
L 438.204957 45.115814 
L 459.755593 45.560892 
L 469.074787 46.001137 
L 478.393981 46.569425 
L 484.800927 47.083597 
L 495.867471 48.357707 
L 502.856866 49.264324 
L 507.516463 50.103611 
L 511.593611 51.030518 
L 517.418107 52.636775 
L 522.077704 54.190816 
L 524.989952 55.35701 
L 528.48465 57.081696 
L 531.979348 59.05799 
L 534.891596 60.95386 
L 537.221395 62.729156 
L 540.133643 65.240096 
L 542.463442 67.636921 
L 545.37569 71.111312 
L 547.123039 73.57563 
L 548.870388 76.38687 
L 551.200186 80.836295 
L 553.529985 85.818524 
L 555.277334 90.006445 
L 557.024682 94.671144 
L 558.772031 99.871795 
L 560.51938 105.855575 
L 562.266729 112.497328 
L 564.014078 120.050502 
L 566.343877 131.247398 
L 568.091226 140.487132 
L 570.421024 154.11347 
L 572.750823 168.933156 
L 575.663071 189.330557 
L 579.157769 215.512185 
L 582.652467 243.047509 
L 589.059413 293.933637 
L 591.389211 310.786131 
L 593.71901 325.969195 
L 596.048808 339.557322 
L 597.796157 348.729791 
L 599.543506 356.869403 
L 601.290855 364.087751 
L 603.038204 370.283285 
L 604.785553 375.543154 
L 605.950452 378.54259 
L 607.697801 382.323866 
L 608.8627 384.428663 
L 610.027599 386.209921 
L 611.192499 387.580554 
L 612.939848 389.140051 
L 614.104747 389.857164 
L 615.269646 390.271096 
L 617.016995 390.68977 
L 618.181894 390.826613 
L 629.248438 390.84375 
L 629.248438 390.84375 
" style="fill:none;stroke:#1f77b4;stroke-linecap:square;"/>
   </g>
   <g id="line2d_14">
    <path clip-path="url(#p88362863a9)" d="M 47.38125 200.248659 
L 57.282894 121.308503 
L 63.10739 74.194839 
L 63.68984 71.38664 
L 64.272289 69.613935 
L 64.854739 68.300369 
L 66.019638 66.429345 
L 67.184538 65.130667 
L 68.931887 63.666272 
L 71.261685 62.200915 
L 73.591484 61.006409 
L 76.503732 59.776148 
L 79.99843 58.603051 
L 84.075577 57.458076 
L 88.735174 56.362141 
L 93.394771 55.446014 
L 101.549066 54.124025 
L 108.538462 53.302053 
L 117.275206 52.511817 
L 127.7593 51.852827 
L 151.057285 50.453358 
L 167.365875 49.455099 
L 176.10262 49.217777 
L 240.17208 48.198622 
L 272.78926 48.094104 
L 312.978285 47.434057 
L 333.364022 47.044514 
L 354.914658 46.757994 
L 365.981202 46.768671 
L 390.444086 46.957373 
L 398.598381 46.837732 
L 413.159622 46.629269 
L 427.138413 46.773474 
L 439.369856 46.809576 
L 467.327438 46.578761 
L 477.811532 46.769653 
L 486.548276 47.105517 
L 494.120122 47.702003 
L 503.439316 48.61708 
L 509.263812 49.357837 
L 515.670758 50.453747 
L 521.495255 51.769309 
L 524.407503 52.611371 
L 527.319751 53.700461 
L 531.396898 55.474618 
L 534.309147 56.97369 
L 537.221395 58.701298 
L 540.133643 60.720024 
L 542.463442 62.599367 
L 544.21079 64.270398 
L 545.958139 66.1806 
L 547.705488 68.380963 
L 549.452837 70.923594 
L 551.200186 73.751837 
L 552.947535 76.917585 
L 555.277334 81.685513 
L 557.607132 87.022373 
L 559.354481 91.546052 
L 561.68428 98.371292 
L 563.431629 104.21353 
L 565.178977 110.704444 
L 566.926326 118.150997 
L 569.256125 129.191292 
L 571.003474 138.657869 
L 573.333272 152.737732 
L 576.245521 171.935702 
L 578.575319 188.506828 
L 581.487567 211.126066 
L 585.564715 244.967254 
L 590.224312 284.044077 
L 593.13656 306.610286 
L 595.466359 323.069769 
L 597.796157 337.818896 
L 599.543506 347.749198 
L 601.290855 356.457346 
L 603.038204 364.067848 
L 604.785553 370.740342 
L 606.532902 376.514324 
L 607.697801 379.840746 
L 608.8627 382.566601 
L 610.027599 384.849708 
L 611.192499 386.71641 
L 612.357398 388.170495 
L 613.522297 389.261045 
L 614.687197 390.017486 
L 615.852096 390.42233 
L 617.599445 390.744902 
L 619.929243 390.830433 
L 629.248438 390.84375 
L 629.248438 390.84375 
" style="fill:none;stroke:#ff7f0e;stroke-linecap:square;"/>
   </g>
   <g id="line2d_15">
    <path clip-path="url(#p88362863a9)" d="M 47.38125 216.232205 
L 52.040847 183.657356 
L 58.447793 137.25924 
L 63.10739 102.754752 
L 63.68984 99.709181 
L 64.854739 95.496156 
L 66.019638 92.428932 
L 67.184538 89.94578 
L 68.931887 86.84766 
L 70.679235 84.334213 
L 72.426584 82.224648 
L 74.756383 79.877697 
L 77.086181 77.845229 
L 79.41598 76.131271 
L 81.745779 74.698962 
L 84.658027 73.180404 
L 87.570275 71.917057 
L 91.064973 70.628861 
L 95.14212 69.422406 
L 99.219268 68.384616 
L 109.703361 66.166372 
L 116.692757 64.839407 
L 126.011951 63.272055 
L 135.331145 61.849386 
L 153.387084 59.504159 
L 167.948325 57.789915 
L 177.267519 57.034932 
L 197.070807 55.880037 
L 219.203893 54.554998 
L 237.842281 53.295847 
L 262.305166 51.599024 
L 279.778655 50.784301 
L 303.65909 49.949508 
L 315.890533 49.831603 
L 342.683216 50.037478 
L 379.959993 50.369463 
L 393.938784 50.328509 
L 403.257978 50.440838 
L 417.819219 51.026364 
L 451.018849 52.775718 
L 461.502942 53.858027 
L 469.657237 54.972834 
L 476.064183 56.11725 
L 483.053579 57.573718 
L 488.878075 58.970738 
L 493.537672 60.243618 
L 497.03237 61.3991 
L 501.109517 62.935463 
L 504.021766 64.257133 
L 509.263812 66.877765 
L 511.593611 68.234879 
L 515.088309 70.544717 
L 518.583006 73.193416 
L 521.495255 75.669093 
L 524.407503 78.429422 
L 526.737301 80.990879 
L 529.64955 84.760788 
L 531.979348 88.056971 
L 533.726697 90.796281 
L 536.056496 95.010554 
L 538.968744 100.72054 
L 541.298542 105.730647 
L 543.045891 109.945719 
L 545.37569 116.065066 
L 547.123039 121.167292 
L 550.035287 130.559556 
L 552.365085 138.962735 
L 555.277334 150.572282 
L 558.772031 165.398402 
L 561.10183 176.300063 
L 564.014078 191.058252 
L 566.343877 203.807098 
L 568.673675 217.815341 
L 572.750823 244.378918 
L 580.905118 298.507481 
L 583.817366 315.983641 
L 586.729614 332.310505 
L 589.059413 344.25386 
L 591.389211 354.965691 
L 593.71901 364.290149 
L 595.466359 370.280097 
L 597.213707 375.363869 
L 598.378607 378.226657 
L 600.125956 381.706581 
L 601.290855 383.590223 
L 602.455754 385.204841 
L 603.620653 386.47882 
L 604.785553 387.485994 
L 606.532902 388.581551 
L 607.697801 389.131006 
L 610.027599 389.943248 
L 611.774948 390.355661 
L 613.522297 390.610768 
L 618.181894 390.84375 
L 629.248438 390.84375 
L 629.248438 390.84375 
" style="fill:none;stroke:#2ca02c;stroke-linecap:square;"/>
   </g>
   <g id="line2d_16">
    <path clip-path="url(#p88362863a9)" d="M 47.38125 265.406463 
L 51.458397 236.787532 
L 56.700444 198.27242 
L 62.524941 153.767684 
L 63.68984 145.283211 
L 64.854739 139.274902 
L 66.019638 134.4792 
L 67.184538 130.431041 
L 68.931887 125.370992 
L 70.679235 121.193725 
L 72.426584 117.577034 
L 74.756383 113.360337 
L 77.086181 109.682584 
L 79.41598 106.429006 
L 81.745779 103.514661 
L 84.658027 100.200906 
L 88.152725 96.643107 
L 91.064973 93.974134 
L 93.977221 91.636032 
L 96.889469 89.581891 
L 99.801717 87.756253 
L 102.713966 86.150612 
L 107.373563 83.901963 
L 112.03316 81.909252 
L 116.110307 80.353313 
L 121.934804 78.442268 
L 130.671548 75.987619 
L 139.990742 73.58035 
L 148.145037 71.612454 
L 168.530775 67.120579 
L 180.179767 64.90634 
L 192.41121 62.72729 
L 205.807551 60.676536 
L 215.126745 59.582751 
L 224.44594 58.651655 
L 235.512483 57.789164 
L 259.975368 56.056808 
L 276.283957 55.060136 
L 290.262749 54.490942 
L 303.65909 53.983097 
L 319.385231 53.428138 
L 332.781572 53.174194 
L 350.837511 53.157205 
L 364.816302 53.542811 
L 379.377543 53.946477 
L 402.675529 54.211404 
L 417.819219 54.745052 
L 430.050662 55.284757 
L 437.622507 55.91551 
L 442.282104 56.495621 
L 448.1066 57.445253 
L 453.348647 58.527169 
L 458.590694 59.877402 
L 470.822136 63.374925 
L 476.646633 65.443402 
L 483.053579 68.035273 
L 485.965827 69.405391 
L 490.042974 71.602027 
L 494.702571 74.453203 
L 497.61482 76.556416 
L 500.527068 78.890596 
L 503.439316 81.590398 
L 506.934014 85.266976 
L 509.846262 88.792066 
L 512.75851 92.781808 
L 517.418107 99.730178 
L 519.747906 103.60716 
L 523.242604 110.048776 
L 526.737301 117.041472 
L 529.0671 122.271801 
L 531.396898 128.020286 
L 533.726697 134.464749 
L 536.638945 143.391429 
L 538.968744 151.053887 
L 541.880992 161.600471 
L 544.21079 170.92463 
L 546.540589 181.043771 
L 549.452837 194.859672 
L 552.365085 209.703507 
L 555.277334 225.776058 
L 560.51938 256.6069 
L 569.256125 307.56916 
L 572.168373 323.024699 
L 575.080621 336.979025 
L 577.41042 347.007903 
L 579.740218 355.887188 
L 581.487567 361.917996 
L 583.234916 367.229948 
L 584.982265 371.899772 
L 586.729614 375.859985 
L 588.476963 379.269553 
L 590.224312 382.035947 
L 591.389211 383.606262 
L 593.13656 385.521917 
L 594.883909 386.943198 
L 596.048808 387.675221 
L 597.796157 388.574444 
L 599.543506 389.248335 
L 601.873305 389.895819 
L 604.203103 390.340054 
L 607.115351 390.62141 
L 610.610049 390.789239 
L 626.336189 390.84375 
L 629.248438 390.84375 
L 629.248438 390.84375 
" style="fill:none;stroke:#d62728;stroke-linecap:square;"/>
   </g>
   <g id="patch_3">
    <path d="M 47.38125 390.84375 
L 47.38125 14.599219 
" style="fill:none;stroke:#000000;stroke-linecap:square;stroke-linejoin:miter;stroke-width:0.8;"/>
   </g>
   <g id="patch_4">
    <path d="M 629.248438 390.84375 
L 629.248438 14.599219 
" style="fill:none;stroke:#000000;stroke-linecap:square;stroke-linejoin:miter;stroke-width:0.8;"/>
   </g>
   <g id="patch_5">
    <path d="M 47.38125 390.84375 
L 629.248438 390.84375 
" style="fill:none;stroke:#000000;stroke-linecap:square;stroke-linejoin:miter;stroke-width:0.8;"/>
   </g>
   <g id="patch_6">
    <path d="M 47.38125 14.599219 
L 629.248438 14.599219 
" style="fill:none;stroke:#000000;stroke-linecap:square;stroke-linejoin:miter;stroke-width:0.8;"/>
   </g>
   <g id="legend_1">
    <g id="patch_7">
     <path d="M 54.38125 385.84375 
L 298.926563 385.84375 
Q 300.926563 385.84375 300.926563 383.84375 
L 300.926563 325.853125 
Q 300.926563 323.853125 298.926563 323.853125 
L 54.38125 323.853125 
Q 52.38125 323.853125 52.38125 325.853125 
L 52.38125 383.84375 
Q 52.38125 385.84375 54.38125 385.84375 
z
" style="fill:#ffffff;opacity:0.8;stroke:#cccccc;stroke-linejoin:miter;"/>
    </g>
    <g id="line2d_17">
     <path d="M 56.38125 331.951563 
L 76.38125 331.951563 
" style="fill:none;stroke:#1f77b4;stroke-linecap:square;"/>
    </g>
    <g id="line2d_18"/>
    <g id="text_15">
     <!-- YOLOv5m  all classes 0.92 at 0.669 -->
     <g transform="translate(84.38125 335.451563)scale(0.1 -0.1)">
      <defs>
       <path d="M -13 4666 
L 666 4666 
L 1959 2747 
L 3244 4666 
L 3922 4666 
L 2272 2222 
L 2272 0 
L 1638 0 
L 1638 2222 
L -13 4666 
z
" id="DejaVuSans-59" transform="scale(0.015625)"/>
       <path d="M 2522 4238 
Q 1834 4238 1429 3725 
Q 1025 3213 1025 2328 
Q 1025 1447 1429 934 
Q 1834 422 2522 422 
Q 3209 422 3611 934 
Q 4013 1447 4013 2328 
Q 4013 3213 3611 3725 
Q 3209 4238 2522 4238 
z
M 2522 4750 
Q 3503 4750 4090 4092 
Q 4678 3434 4678 2328 
Q 4678 1225 4090 567 
Q 3503 -91 2522 -91 
Q 1538 -91 948 565 
Q 359 1222 359 2328 
Q 359 3434 948 4092 
Q 1538 4750 2522 4750 
z
" id="DejaVuSans-4f" transform="scale(0.015625)"/>
       <path d="M 628 4666 
L 1259 4666 
L 1259 531 
L 3531 531 
L 3531 0 
L 628 0 
L 628 4666 
z
" id="DejaVuSans-4c" transform="scale(0.015625)"/>
       <path d="M 191 3500 
L 800 3500 
L 1894 563 
L 2988 3500 
L 3597 3500 
L 2284 0 
L 1503 0 
L 191 3500 
z
" id="DejaVuSans-76" transform="scale(0.015625)"/>
       <path d="M 691 4666 
L 3169 4666 
L 3169 4134 
L 1269 4134 
L 1269 2991 
Q 1406 3038 1543 3061 
Q 1681 3084 1819 3084 
Q 2600 3084 3056 2656 
Q 3513 2228 3513 1497 
Q 3513 744 3044 326 
Q 2575 -91 1722 -91 
Q 1428 -91 1123 -41 
Q 819 9 494 109 
L 494 744 
Q 775 591 1075 516 
Q 1375 441 1709 441 
Q 2250 441 2565 725 
Q 2881 1009 2881 1497 
Q 2881 1984 2565 2268 
Q 2250 2553 1709 2553 
Q 1456 2553 1204 2497 
Q 953 2441 691 2322 
L 691 4666 
z
" id="DejaVuSans-35" transform="scale(0.015625)"/>
       <path d="M 3328 2828 
Q 3544 3216 3844 3400 
Q 4144 3584 4550 3584 
Q 5097 3584 5394 3201 
Q 5691 2819 5691 2113 
L 5691 0 
L 5113 0 
L 5113 2094 
Q 5113 2597 4934 2840 
Q 4756 3084 4391 3084 
Q 3944 3084 3684 2787 
Q 3425 2491 3425 1978 
L 3425 0 
L 2847 0 
L 2847 2094 
Q 2847 2600 2669 2842 
Q 2491 3084 2119 3084 
Q 1678 3084 1418 2786 
Q 1159 2488 1159 1978 
L 1159 0 
L 581 0 
L 581 3500 
L 1159 3500 
L 1159 2956 
Q 1356 3278 1631 3431 
Q 1906 3584 2284 3584 
Q 2666 3584 2933 3390 
Q 3200 3197 3328 2828 
z
" id="DejaVuSans-6d" transform="scale(0.015625)"/>
       <path id="DejaVuSans-20" transform="scale(0.015625)"/>
       <path d="M 2194 1759 
Q 1497 1759 1228 1600 
Q 959 1441 959 1056 
Q 959 750 1161 570 
Q 1363 391 1709 391 
Q 2188 391 2477 730 
Q 2766 1069 2766 1631 
L 2766 1759 
L 2194 1759 
z
M 3341 1997 
L 3341 0 
L 2766 0 
L 2766 531 
Q 2569 213 2275 61 
Q 1981 -91 1556 -91 
Q 1019 -91 701 211 
Q 384 513 384 1019 
Q 384 1609 779 1909 
Q 1175 2209 1959 2209 
L 2766 2209 
L 2766 2266 
Q 2766 2663 2505 2880 
Q 2244 3097 1772 3097 
Q 1472 3097 1187 3025 
Q 903 2953 641 2809 
L 641 3341 
Q 956 3463 1253 3523 
Q 1550 3584 1831 3584 
Q 2591 3584 2966 3190 
Q 3341 2797 3341 1997 
z
" id="DejaVuSans-61" transform="scale(0.015625)"/>
       <path d="M 603 4863 
L 1178 4863 
L 1178 0 
L 603 0 
L 603 4863 
z
" id="DejaVuSans-6c" transform="scale(0.015625)"/>
       <path d="M 2834 3397 
L 2834 2853 
Q 2591 2978 2328 3040 
Q 2066 3103 1784 3103 
Q 1356 3103 1142 2972 
Q 928 2841 928 2578 
Q 928 2378 1081 2264 
Q 1234 2150 1697 2047 
L 1894 2003 
Q 2506 1872 2764 1633 
Q 3022 1394 3022 966 
Q 3022 478 2636 193 
Q 2250 -91 1575 -91 
Q 1294 -91 989 -36 
Q 684 19 347 128 
L 347 722 
Q 666 556 975 473 
Q 1284 391 1588 391 
Q 1994 391 2212 530 
Q 2431 669 2431 922 
Q 2431 1156 2273 1281 
Q 2116 1406 1581 1522 
L 1381 1569 
Q 847 1681 609 1914 
Q 372 2147 372 2553 
Q 372 3047 722 3315 
Q 1072 3584 1716 3584 
Q 2034 3584 2315 3537 
Q 2597 3491 2834 3397 
z
" id="DejaVuSans-73" transform="scale(0.015625)"/>
       <path d="M 703 97 
L 703 672 
Q 941 559 1184 500 
Q 1428 441 1663 441 
Q 2288 441 2617 861 
Q 2947 1281 2994 2138 
Q 2813 1869 2534 1725 
Q 2256 1581 1919 1581 
Q 1219 1581 811 2004 
Q 403 2428 403 3163 
Q 403 3881 828 4315 
Q 1253 4750 1959 4750 
Q 2769 4750 3195 4129 
Q 3622 3509 3622 2328 
Q 3622 1225 3098 567 
Q 2575 -91 1691 -91 
Q 1453 -91 1209 -44 
Q 966 3 703 97 
z
M 1959 2075 
Q 2384 2075 2632 2365 
Q 2881 2656 2881 3163 
Q 2881 3666 2632 3958 
Q 2384 4250 1959 4250 
Q 1534 4250 1286 3958 
Q 1038 3666 1038 3163 
Q 1038 2656 1286 2365 
Q 1534 2075 1959 2075 
z
" id="DejaVuSans-39" transform="scale(0.015625)"/>
       <path d="M 1172 4494 
L 1172 3500 
L 2356 3500 
L 2356 3053 
L 1172 3053 
L 1172 1153 
Q 1172 725 1289 603 
Q 1406 481 1766 481 
L 2356 481 
L 2356 0 
L 1766 0 
Q 1100 0 847 248 
Q 594 497 594 1153 
L 594 3053 
L 172 3053 
L 172 3500 
L 594 3500 
L 594 4494 
L 1172 4494 
z
" id="DejaVuSans-74" transform="scale(0.015625)"/>
      </defs>
      <use xlink:href="#DejaVuSans-59"/>
      <use x="55.583984" xlink:href="#DejaVuSans-4f"/>
      <use x="134.294922" xlink:href="#DejaVuSans-4c"/>
      <use x="186.382812" xlink:href="#DejaVuSans-4f"/>
      <use x="265.09375" xlink:href="#DejaVuSans-76"/>
      <use x="324.273438" xlink:href="#DejaVuSans-35"/>
      <use x="387.896484" xlink:href="#DejaVuSans-6d"/>
      <use x="485.308594" xlink:href="#DejaVuSans-20"/>
      <use x="517.095703" xlink:href="#DejaVuSans-20"/>
      <use x="548.882812" xlink:href="#DejaVuSans-61"/>
      <use x="610.162109" xlink:href="#DejaVuSans-6c"/>
      <use x="637.945312" xlink:href="#DejaVuSans-6c"/>
      <use x="665.728516" xlink:href="#DejaVuSans-20"/>
      <use x="697.515625" xlink:href="#DejaVuSans-63"/>
      <use x="752.496094" xlink:href="#DejaVuSans-6c"/>
      <use x="780.279297" xlink:href="#DejaVuSans-61"/>
      <use x="841.558594" xlink:href="#DejaVuSans-73"/>
      <use x="893.658203" xlink:href="#DejaVuSans-73"/>
      <use x="945.757812" xlink:href="#DejaVuSans-65"/>
      <use x="1007.28125" xlink:href="#DejaVuSans-73"/>
      <use x="1059.380859" xlink:href="#DejaVuSans-20"/>
      <use x="1091.167969" xlink:href="#DejaVuSans-30"/>
      <use x="1154.791016" xlink:href="#DejaVuSans-2e"/>
      <use x="1186.578125" xlink:href="#DejaVuSans-39"/>
      <use x="1250.201172" xlink:href="#DejaVuSans-32"/>
      <use x="1313.824219" xlink:href="#DejaVuSans-20"/>
      <use x="1345.611328" xlink:href="#DejaVuSans-61"/>
      <use x="1406.890625" xlink:href="#DejaVuSans-74"/>
      <use x="1446.099609" xlink:href="#DejaVuSans-20"/>
      <use x="1477.886719" xlink:href="#DejaVuSans-30"/>
      <use x="1541.509766" xlink:href="#DejaVuSans-2e"/>
      <use x="1573.296875" xlink:href="#DejaVuSans-36"/>
      <use x="1636.919922" xlink:href="#DejaVuSans-36"/>
      <use x="1700.542969" xlink:href="#DejaVuSans-39"/>
     </g>
    </g>
    <g id="line2d_19">
     <path d="M 56.38125 346.629688 
L 76.38125 346.629688 
" style="fill:none;stroke:#ff7f0e;stroke-linecap:square;"/>
    </g>
    <g id="line2d_20"/>
    <g id="text_16">
     <!-- RDD-YOLOv5m_2  all classes 0.92 at 0.715 -->
     <g transform="translate(84.38125 350.129688)scale(0.1 -0.1)">
      <defs>
       <path d="M 2841 2188 
Q 3044 2119 3236 1894 
Q 3428 1669 3622 1275 
L 4263 0 
L 3584 0 
L 2988 1197 
Q 2756 1666 2539 1819 
Q 2322 1972 1947 1972 
L 1259 1972 
L 1259 0 
L 628 0 
L 628 4666 
L 2053 4666 
Q 2853 4666 3247 4331 
Q 3641 3997 3641 3322 
Q 3641 2881 3436 2590 
Q 3231 2300 2841 2188 
z
M 1259 4147 
L 1259 2491 
L 2053 2491 
Q 2509 2491 2742 2702 
Q 2975 2913 2975 3322 
Q 2975 3731 2742 3939 
Q 2509 4147 2053 4147 
L 1259 4147 
z
" id="DejaVuSans-52" transform="scale(0.015625)"/>
       <path d="M 1259 4147 
L 1259 519 
L 2022 519 
Q 2988 519 3436 956 
Q 3884 1394 3884 2338 
Q 3884 3275 3436 3711 
Q 2988 4147 2022 4147 
L 1259 4147 
z
M 628 4666 
L 1925 4666 
Q 3281 4666 3915 4102 
Q 4550 3538 4550 2338 
Q 4550 1131 3912 565 
Q 3275 0 1925 0 
L 628 0 
L 628 4666 
z
" id="DejaVuSans-44" transform="scale(0.015625)"/>
       <path d="M 313 2009 
L 1997 2009 
L 1997 1497 
L 313 1497 
L 313 2009 
z
" id="DejaVuSans-2d" transform="scale(0.015625)"/>
       <path d="M 3263 -1063 
L 3263 -1509 
L -63 -1509 
L -63 -1063 
L 3263 -1063 
z
" id="DejaVuSans-5f" transform="scale(0.015625)"/>
       <path d="M 525 4666 
L 3525 4666 
L 3525 4397 
L 1831 0 
L 1172 0 
L 2766 4134 
L 525 4134 
L 525 4666 
z
" id="DejaVuSans-37" transform="scale(0.015625)"/>
      </defs>
      <use xlink:href="#DejaVuSans-52"/>
      <use x="69.482422" xlink:href="#DejaVuSans-44"/>
      <use x="146.484375" xlink:href="#DejaVuSans-44"/>
      <use x="223.486328" xlink:href="#DejaVuSans-2d"/>
      <use x="247.695312" xlink:href="#DejaVuSans-59"/>
      <use x="303.279297" xlink:href="#DejaVuSans-4f"/>
      <use x="381.990234" xlink:href="#DejaVuSans-4c"/>
      <use x="434.078125" xlink:href="#DejaVuSans-4f"/>
      <use x="512.789062" xlink:href="#DejaVuSans-76"/>
      <use x="571.96875" xlink:href="#DejaVuSans-35"/>
      <use x="635.591797" xlink:href="#DejaVuSans-6d"/>
      <use x="733.003906" xlink:href="#DejaVuSans-5f"/>
      <use x="783.003906" xlink:href="#DejaVuSans-32"/>
      <use x="846.626953" xlink:href="#DejaVuSans-20"/>
      <use x="878.414062" xlink:href="#DejaVuSans-20"/>
      <use x="910.201172" xlink:href="#DejaVuSans-61"/>
      <use x="971.480469" xlink:href="#DejaVuSans-6c"/>
      <use x="999.263672" xlink:href="#DejaVuSans-6c"/>
      <use x="1027.046875" xlink:href="#DejaVuSans-20"/>
      <use x="1058.833984" xlink:href="#DejaVuSans-63"/>
      <use x="1113.814453" xlink:href="#DejaVuSans-6c"/>
      <use x="1141.597656" xlink:href="#DejaVuSans-61"/>
      <use x="1202.876953" xlink:href="#DejaVuSans-73"/>
      <use x="1254.976562" xlink:href="#DejaVuSans-73"/>
      <use x="1307.076172" xlink:href="#DejaVuSans-65"/>
      <use x="1368.599609" xlink:href="#DejaVuSans-73"/>
      <use x="1420.699219" xlink:href="#DejaVuSans-20"/>
      <use x="1452.486328" xlink:href="#DejaVuSans-30"/>
      <use x="1516.109375" xlink:href="#DejaVuSans-2e"/>
      <use x="1547.896484" xlink:href="#DejaVuSans-39"/>
      <use x="1611.519531" xlink:href="#DejaVuSans-32"/>
      <use x="1675.142578" xlink:href="#DejaVuSans-20"/>
      <use x="1706.929688" xlink:href="#DejaVuSans-61"/>
      <use x="1768.208984" xlink:href="#DejaVuSans-74"/>
      <use x="1807.417969" xlink:href="#DejaVuSans-20"/>
      <use x="1839.205078" xlink:href="#DejaVuSans-30"/>
      <use x="1902.828125" xlink:href="#DejaVuSans-2e"/>
      <use x="1934.615234" xlink:href="#DejaVuSans-37"/>
      <use x="1998.238281" xlink:href="#DejaVuSans-31"/>
      <use x="2061.861328" xlink:href="#DejaVuSans-35"/>
     </g>
    </g>
    <g id="line2d_21">
     <path d="M 56.38125 361.585938 
L 76.38125 361.585938 
" style="fill:none;stroke:#2ca02c;stroke-linecap:square;"/>
    </g>
    <g id="line2d_22"/>
    <g id="text_17">
     <!-- RDD-YOLOv5s  all classes 0.91 at 0.459 -->
     <g transform="translate(84.38125 365.085938)scale(0.1 -0.1)">
      <use xlink:href="#DejaVuSans-52"/>
      <use x="69.482422" xlink:href="#DejaVuSans-44"/>
      <use x="146.484375" xlink:href="#DejaVuSans-44"/>
      <use x="223.486328" xlink:href="#DejaVuSans-2d"/>
      <use x="247.695312" xlink:href="#DejaVuSans-59"/>
      <use x="303.279297" xlink:href="#DejaVuSans-4f"/>
      <use x="381.990234" xlink:href="#DejaVuSans-4c"/>
      <use x="434.078125" xlink:href="#DejaVuSans-4f"/>
      <use x="512.789062" xlink:href="#DejaVuSans-76"/>
      <use x="571.96875" xlink:href="#DejaVuSans-35"/>
      <use x="635.591797" xlink:href="#DejaVuSans-73"/>
      <use x="687.691406" xlink:href="#DejaVuSans-20"/>
      <use x="719.478516" xlink:href="#DejaVuSans-20"/>
      <use x="751.265625" xlink:href="#DejaVuSans-61"/>
      <use x="812.544922" xlink:href="#DejaVuSans-6c"/>
      <use x="840.328125" xlink:href="#DejaVuSans-6c"/>
      <use x="868.111328" xlink:href="#DejaVuSans-20"/>
      <use x="899.898438" xlink:href="#DejaVuSans-63"/>
      <use x="954.878906" xlink:href="#DejaVuSans-6c"/>
      <use x="982.662109" xlink:href="#DejaVuSans-61"/>
      <use x="1043.941406" xlink:href="#DejaVuSans-73"/>
      <use x="1096.041016" xlink:href="#DejaVuSans-73"/>
      <use x="1148.140625" xlink:href="#DejaVuSans-65"/>
      <use x="1209.664062" xlink:href="#DejaVuSans-73"/>
      <use x="1261.763672" xlink:href="#DejaVuSans-20"/>
      <use x="1293.550781" xlink:href="#DejaVuSans-30"/>
      <use x="1357.173828" xlink:href="#DejaVuSans-2e"/>
      <use x="1388.960938" xlink:href="#DejaVuSans-39"/>
      <use x="1452.583984" xlink:href="#DejaVuSans-31"/>
      <use x="1516.207031" xlink:href="#DejaVuSans-20"/>
      <use x="1547.994141" xlink:href="#DejaVuSans-61"/>
      <use x="1609.273438" xlink:href="#DejaVuSans-74"/>
      <use x="1648.482422" xlink:href="#DejaVuSans-20"/>
      <use x="1680.269531" xlink:href="#DejaVuSans-30"/>
      <use x="1743.892578" xlink:href="#DejaVuSans-2e"/>
      <use x="1775.679688" xlink:href="#DejaVuSans-34"/>
      <use x="1839.302734" xlink:href="#DejaVuSans-35"/>
      <use x="1902.925781" xlink:href="#DejaVuSans-39"/>
     </g>
    </g>
    <g id="line2d_23">
     <path d="M 56.38125 376.264063 
L 76.38125 376.264063 
" style="fill:none;stroke:#d62728;stroke-linecap:square;"/>
    </g>
    <g id="line2d_24"/>
    <g id="text_18">
     <!-- YOLOv5s  all classes 0.90 at 0.513 -->
     <g transform="translate(84.38125 379.764063)scale(0.1 -0.1)">
      <defs>
       <path d="M 2597 2516 
Q 3050 2419 3304 2112 
Q 3559 1806 3559 1356 
Q 3559 666 3084 287 
Q 2609 -91 1734 -91 
Q 1441 -91 1130 -33 
Q 819 25 488 141 
L 488 750 
Q 750 597 1062 519 
Q 1375 441 1716 441 
Q 2309 441 2620 675 
Q 2931 909 2931 1356 
Q 2931 1769 2642 2001 
Q 2353 2234 1838 2234 
L 1294 2234 
L 1294 2753 
L 1863 2753 
Q 2328 2753 2575 2939 
Q 2822 3125 2822 3475 
Q 2822 3834 2567 4026 
Q 2313 4219 1838 4219 
Q 1578 4219 1281 4162 
Q 984 4106 628 3988 
L 628 4550 
Q 988 4650 1302 4700 
Q 1616 4750 1894 4750 
Q 2613 4750 3031 4423 
Q 3450 4097 3450 3541 
Q 3450 3153 3228 2886 
Q 3006 2619 2597 2516 
z
" id="DejaVuSans-33" transform="scale(0.015625)"/>
      </defs>
      <use xlink:href="#DejaVuSans-59"/>
      <use x="55.583984" xlink:href="#DejaVuSans-4f"/>
      <use x="134.294922" xlink:href="#DejaVuSans-4c"/>
      <use x="186.382812" xlink:href="#DejaVuSans-4f"/>
      <use x="265.09375" xlink:href="#DejaVuSans-76"/>
      <use x="324.273438" xlink:href="#DejaVuSans-35"/>
      <use x="387.896484" xlink:href="#DejaVuSans-73"/>
      <use x="439.996094" xlink:href="#DejaVuSans-20"/>
      <use x="471.783203" xlink:href="#DejaVuSans-20"/>
      <use x="503.570312" xlink:href="#DejaVuSans-61"/>
      <use x="564.849609" xlink:href="#DejaVuSans-6c"/>
      <use x="592.632812" xlink:href="#DejaVuSans-6c"/>
      <use x="620.416016" xlink:href="#DejaVuSans-20"/>
      <use x="652.203125" xlink:href="#DejaVuSans-63"/>
      <use x="707.183594" xlink:href="#DejaVuSans-6c"/>
      <use x="734.966797" xlink:href="#DejaVuSans-61"/>
      <use x="796.246094" xlink:href="#DejaVuSans-73"/>
      <use x="848.345703" xlink:href="#DejaVuSans-73"/>
      <use x="900.445312" xlink:href="#DejaVuSans-65"/>
      <use x="961.96875" xlink:href="#DejaVuSans-73"/>
      <use x="1014.068359" xlink:href="#DejaVuSans-20"/>
      <use x="1045.855469" xlink:href="#DejaVuSans-30"/>
      <use x="1109.478516" xlink:href="#DejaVuSans-2e"/>
      <use x="1141.265625" xlink:href="#DejaVuSans-39"/>
      <use x="1204.888672" xlink:href="#DejaVuSans-30"/>
      <use x="1268.511719" xlink:href="#DejaVuSans-20"/>
      <use x="1300.298828" xlink:href="#DejaVuSans-61"/>
      <use x="1361.578125" xlink:href="#DejaVuSans-74"/>
      <use x="1400.787109" xlink:href="#DejaVuSans-20"/>
      <use x="1432.574219" xlink:href="#DejaVuSans-30"/>
      <use x="1496.197266" xlink:href="#DejaVuSans-2e"/>
      <use x="1527.984375" xlink:href="#DejaVuSans-35"/>
      <use x="1591.607422" xlink:href="#DejaVuSans-31"/>
      <use x="1655.230469" xlink:href="#DejaVuSans-33"/>
     </g>
    </g>
   </g>
  </g>
 </g>
 <defs>
  <clipPath id="p88362863a9">
   <rect height="376.244531" width="581.867188" x="47.38125" y="14.599219"/>
  </clipPath>
 </defs>
</svg>
