<?xml version="1.0" encoding="utf-8" standalone="no"?>
<!DOCTYPE svg PUBLIC "-//W3C//DTD SVG 1.1//EN"
  "http://www.w3.org/Graphics/SVG/1.1/DTD/svg11.dtd">
<svg height="432pt" version="1.1" viewBox="0 0 648 432" width="648pt" xmlns="http://www.w3.org/2000/svg" xmlns:xlink="http://www.w3.org/1999/xlink">
 <metadata>
  <rdf:RDF xmlns:cc="http://creativecommons.org/ns#" xmlns:dc="http://purl.org/dc/elements/1.1/" xmlns:rdf="http://www.w3.org/1999/02/22-rdf-syntax-ns#">
   <cc:Work>
    <dc:type rdf:resource="http://purl.org/dc/dcmitype/StillImage"/>
    <dc:date>2023-05-02T20:24:04.866646</dc:date>
    <dc:format>image/svg+xml</dc:format>
    <dc:creator>
     <cc:Agent>
      <dc:title>Matplotlib v3.4.3, https://matplotlib.org/</dc:title>
     </cc:Agent>
    </dc:creator>
   </cc:Work>
  </rdf:RDF>
 </metadata>
 <defs>
  <style type="text/css">*{stroke-linecap:butt;stroke-linejoin:round;}</style>
 </defs>
 <g id="figure_1">
  <g id="patch_1">
   <path d="M 0 432 
L 648 432 
L 648 0 
L 0 0 
z
" style="fill:#ffffff;"/>
  </g>
  <g id="axes_1">
   <g id="patch_2">
    <path d="M 47.38125 390.84375 
L 629.248438 390.84375 
L 629.248438 14.599219 
L 47.38125 14.599219 
z
" style="fill:#ffffff;"/>
   </g>
   <g id="matplotlib.axis_1">
    <g id="xtick_1">
     <g id="line2d_1">
      <defs>
       <path d="M 0 0 
L 0 3.5 
" id="me40e0dff2f" style="stroke:#000000;stroke-width:0.8;"/>
      </defs>
      <g>
       <use style="stroke:#000000;stroke-width:0.8;" x="47.38125" xlink:href="#me40e0dff2f" y="390.84375"/>
      </g>
     </g>
     <g id="text_1">
      <!-- 0.0 -->
      <g transform="translate(39.429688 405.442187)scale(0.1 -0.1)">
       <defs>
        <path d="M 2034 4250 
Q 1547 4250 1301 3770 
Q 1056 3291 1056 2328 
Q 1056 1369 1301 889 
Q 1547 409 2034 409 
Q 2525 409 2770 889 
Q 3016 1369 3016 2328 
Q 3016 3291 2770 3770 
Q 2525 4250 2034 4250 
z
M 2034 4750 
Q 2819 4750 3233 4129 
Q 3647 3509 3647 2328 
Q 3647 1150 3233 529 
Q 2819 -91 2034 -91 
Q 1250 -91 836 529 
Q 422 1150 422 2328 
Q 422 3509 836 4129 
Q 1250 4750 2034 4750 
z
" id="DejaVuSans-30" transform="scale(0.015625)"/>
        <path d="M 684 794 
L 1344 794 
L 1344 0 
L 684 0 
L 684 794 
z
" id="DejaVuSans-2e" transform="scale(0.015625)"/>
       </defs>
       <use xlink:href="#DejaVuSans-30"/>
       <use x="63.623047" xlink:href="#DejaVuSans-2e"/>
       <use x="95.410156" xlink:href="#DejaVuSans-30"/>
      </g>
     </g>
    </g>
    <g id="xtick_2">
     <g id="line2d_2">
      <g>
       <use style="stroke:#000000;stroke-width:0.8;" x="163.754688" xlink:href="#me40e0dff2f" y="390.84375"/>
      </g>
     </g>
     <g id="text_2">
      <!-- 0.2 -->
      <g transform="translate(155.803125 405.442187)scale(0.1 -0.1)">
       <defs>
        <path d="M 1228 531 
L 3431 531 
L 3431 0 
L 469 0 
L 469 531 
Q 828 903 1448 1529 
Q 2069 2156 2228 2338 
Q 2531 2678 2651 2914 
Q 2772 3150 2772 3378 
Q 2772 3750 2511 3984 
Q 2250 4219 1831 4219 
Q 1534 4219 1204 4116 
Q 875 4013 500 3803 
L 500 4441 
Q 881 4594 1212 4672 
Q 1544 4750 1819 4750 
Q 2544 4750 2975 4387 
Q 3406 4025 3406 3419 
Q 3406 3131 3298 2873 
Q 3191 2616 2906 2266 
Q 2828 2175 2409 1742 
Q 1991 1309 1228 531 
z
" id="DejaVuSans-32" transform="scale(0.015625)"/>
       </defs>
       <use xlink:href="#DejaVuSans-30"/>
       <use x="63.623047" xlink:href="#DejaVuSans-2e"/>
       <use x="95.410156" xlink:href="#DejaVuSans-32"/>
      </g>
     </g>
    </g>
    <g id="xtick_3">
     <g id="line2d_3">
      <g>
       <use style="stroke:#000000;stroke-width:0.8;" x="280.128125" xlink:href="#me40e0dff2f" y="390.84375"/>
      </g>
     </g>
     <g id="text_3">
      <!-- 0.4 -->
      <g transform="translate(272.176562 405.442187)scale(0.1 -0.1)">
       <defs>
        <path d="M 2419 4116 
L 825 1625 
L 2419 1625 
L 2419 4116 
z
M 2253 4666 
L 3047 4666 
L 3047 1625 
L 3713 1625 
L 3713 1100 
L 3047 1100 
L 3047 0 
L 2419 0 
L 2419 1100 
L 313 1100 
L 313 1709 
L 2253 4666 
z
" id="DejaVuSans-34" transform="scale(0.015625)"/>
       </defs>
       <use xlink:href="#DejaVuSans-30"/>
       <use x="63.623047" xlink:href="#DejaVuSans-2e"/>
       <use x="95.410156" xlink:href="#DejaVuSans-34"/>
      </g>
     </g>
    </g>
    <g id="xtick_4">
     <g id="line2d_4">
      <g>
       <use style="stroke:#000000;stroke-width:0.8;" x="396.501563" xlink:href="#me40e0dff2f" y="390.84375"/>
      </g>
     </g>
     <g id="text_4">
      <!-- 0.6 -->
      <g transform="translate(388.55 405.442187)scale(0.1 -0.1)">
       <defs>
        <path d="M 2113 2584 
Q 1688 2584 1439 2293 
Q 1191 2003 1191 1497 
Q 1191 994 1439 701 
Q 1688 409 2113 409 
Q 2538 409 2786 701 
Q 3034 994 3034 1497 
Q 3034 2003 2786 2293 
Q 2538 2584 2113 2584 
z
M 3366 4563 
L 3366 3988 
Q 3128 4100 2886 4159 
Q 2644 4219 2406 4219 
Q 1781 4219 1451 3797 
Q 1122 3375 1075 2522 
Q 1259 2794 1537 2939 
Q 1816 3084 2150 3084 
Q 2853 3084 3261 2657 
Q 3669 2231 3669 1497 
Q 3669 778 3244 343 
Q 2819 -91 2113 -91 
Q 1303 -91 875 529 
Q 447 1150 447 2328 
Q 447 3434 972 4092 
Q 1497 4750 2381 4750 
Q 2619 4750 2861 4703 
Q 3103 4656 3366 4563 
z
" id="DejaVuSans-36" transform="scale(0.015625)"/>
       </defs>
       <use xlink:href="#DejaVuSans-30"/>
       <use x="63.623047" xlink:href="#DejaVuSans-2e"/>
       <use x="95.410156" xlink:href="#DejaVuSans-36"/>
      </g>
     </g>
    </g>
    <g id="xtick_5">
     <g id="line2d_5">
      <g>
       <use style="stroke:#000000;stroke-width:0.8;" x="512.875" xlink:href="#me40e0dff2f" y="390.84375"/>
      </g>
     </g>
     <g id="text_5">
      <!-- 0.8 -->
      <g transform="translate(504.923437 405.442187)scale(0.1 -0.1)">
       <defs>
        <path d="M 2034 2216 
Q 1584 2216 1326 1975 
Q 1069 1734 1069 1313 
Q 1069 891 1326 650 
Q 1584 409 2034 409 
Q 2484 409 2743 651 
Q 3003 894 3003 1313 
Q 3003 1734 2745 1975 
Q 2488 2216 2034 2216 
z
M 1403 2484 
Q 997 2584 770 2862 
Q 544 3141 544 3541 
Q 544 4100 942 4425 
Q 1341 4750 2034 4750 
Q 2731 4750 3128 4425 
Q 3525 4100 3525 3541 
Q 3525 3141 3298 2862 
Q 3072 2584 2669 2484 
Q 3125 2378 3379 2068 
Q 3634 1759 3634 1313 
Q 3634 634 3220 271 
Q 2806 -91 2034 -91 
Q 1263 -91 848 271 
Q 434 634 434 1313 
Q 434 1759 690 2068 
Q 947 2378 1403 2484 
z
M 1172 3481 
Q 1172 3119 1398 2916 
Q 1625 2713 2034 2713 
Q 2441 2713 2670 2916 
Q 2900 3119 2900 3481 
Q 2900 3844 2670 4047 
Q 2441 4250 2034 4250 
Q 1625 4250 1398 4047 
Q 1172 3844 1172 3481 
z
" id="DejaVuSans-38" transform="scale(0.015625)"/>
       </defs>
       <use xlink:href="#DejaVuSans-30"/>
       <use x="63.623047" xlink:href="#DejaVuSans-2e"/>
       <use x="95.410156" xlink:href="#DejaVuSans-38"/>
      </g>
     </g>
    </g>
    <g id="xtick_6">
     <g id="line2d_6">
      <g>
       <use style="stroke:#000000;stroke-width:0.8;" x="629.248438" xlink:href="#me40e0dff2f" y="390.84375"/>
      </g>
     </g>
     <g id="text_6">
      <!-- 1.0 -->
      <g transform="translate(621.296875 405.442187)scale(0.1 -0.1)">
       <defs>
        <path d="M 794 531 
L 1825 531 
L 1825 4091 
L 703 3866 
L 703 4441 
L 1819 4666 
L 2450 4666 
L 2450 531 
L 3481 531 
L 3481 0 
L 794 0 
L 794 531 
z
" id="DejaVuSans-31" transform="scale(0.015625)"/>
       </defs>
       <use xlink:href="#DejaVuSans-31"/>
       <use x="63.623047" xlink:href="#DejaVuSans-2e"/>
       <use x="95.410156" xlink:href="#DejaVuSans-30"/>
      </g>
     </g>
    </g>
    <g id="text_7">
     <!-- Recall -->
     <g transform="translate(323.397656 419.120313)scale(0.1 -0.1)">
      <defs>
       <path d="M 2841 2188 
Q 3044 2119 3236 1894 
Q 3428 1669 3622 1275 
L 4263 0 
L 3584 0 
L 2988 1197 
Q 2756 1666 2539 1819 
Q 2322 1972 1947 1972 
L 1259 1972 
L 1259 0 
L 628 0 
L 628 4666 
L 2053 4666 
Q 2853 4666 3247 4331 
Q 3641 3997 3641 3322 
Q 3641 2881 3436 2590 
Q 3231 2300 2841 2188 
z
M 1259 4147 
L 1259 2491 
L 2053 2491 
Q 2509 2491 2742 2702 
Q 2975 2913 2975 3322 
Q 2975 3731 2742 3939 
Q 2509 4147 2053 4147 
L 1259 4147 
z
" id="DejaVuSans-52" transform="scale(0.015625)"/>
       <path d="M 3597 1894 
L 3597 1613 
L 953 1613 
Q 991 1019 1311 708 
Q 1631 397 2203 397 
Q 2534 397 2845 478 
Q 3156 559 3463 722 
L 3463 178 
Q 3153 47 2828 -22 
Q 2503 -91 2169 -91 
Q 1331 -91 842 396 
Q 353 884 353 1716 
Q 353 2575 817 3079 
Q 1281 3584 2069 3584 
Q 2775 3584 3186 3129 
Q 3597 2675 3597 1894 
z
M 3022 2063 
Q 3016 2534 2758 2815 
Q 2500 3097 2075 3097 
Q 1594 3097 1305 2825 
Q 1016 2553 972 2059 
L 3022 2063 
z
" id="DejaVuSans-65" transform="scale(0.015625)"/>
       <path d="M 3122 3366 
L 3122 2828 
Q 2878 2963 2633 3030 
Q 2388 3097 2138 3097 
Q 1578 3097 1268 2742 
Q 959 2388 959 1747 
Q 959 1106 1268 751 
Q 1578 397 2138 397 
Q 2388 397 2633 464 
Q 2878 531 3122 666 
L 3122 134 
Q 2881 22 2623 -34 
Q 2366 -91 2075 -91 
Q 1284 -91 818 406 
Q 353 903 353 1747 
Q 353 2603 823 3093 
Q 1294 3584 2113 3584 
Q 2378 3584 2631 3529 
Q 2884 3475 3122 3366 
z
" id="DejaVuSans-63" transform="scale(0.015625)"/>
       <path d="M 2194 1759 
Q 1497 1759 1228 1600 
Q 959 1441 959 1056 
Q 959 750 1161 570 
Q 1363 391 1709 391 
Q 2188 391 2477 730 
Q 2766 1069 2766 1631 
L 2766 1759 
L 2194 1759 
z
M 3341 1997 
L 3341 0 
L 2766 0 
L 2766 531 
Q 2569 213 2275 61 
Q 1981 -91 1556 -91 
Q 1019 -91 701 211 
Q 384 513 384 1019 
Q 384 1609 779 1909 
Q 1175 2209 1959 2209 
L 2766 2209 
L 2766 2266 
Q 2766 2663 2505 2880 
Q 2244 3097 1772 3097 
Q 1472 3097 1187 3025 
Q 903 2953 641 2809 
L 641 3341 
Q 956 3463 1253 3523 
Q 1550 3584 1831 3584 
Q 2591 3584 2966 3190 
Q 3341 2797 3341 1997 
z
" id="DejaVuSans-61" transform="scale(0.015625)"/>
       <path d="M 603 4863 
L 1178 4863 
L 1178 0 
L 603 0 
L 603 4863 
z
" id="DejaVuSans-6c" transform="scale(0.015625)"/>
      </defs>
      <use xlink:href="#DejaVuSans-52"/>
      <use x="64.982422" xlink:href="#DejaVuSans-65"/>
      <use x="126.505859" xlink:href="#DejaVuSans-63"/>
      <use x="181.486328" xlink:href="#DejaVuSans-61"/>
      <use x="242.765625" xlink:href="#DejaVuSans-6c"/>
      <use x="270.548828" xlink:href="#DejaVuSans-6c"/>
     </g>
    </g>
   </g>
   <g id="matplotlib.axis_2">
    <g id="ytick_1">
     <g id="line2d_7">
      <defs>
       <path d="M 0 0 
L -3.5 0 
" id="m1cec95845f" style="stroke:#000000;stroke-width:0.8;"/>
      </defs>
      <g>
       <use style="stroke:#000000;stroke-width:0.8;" x="47.38125" xlink:href="#m1cec95845f" y="390.84375"/>
      </g>
     </g>
     <g id="text_8">
      <!-- 0.0 -->
      <g transform="translate(24.478125 394.642969)scale(0.1 -0.1)">
       <use xlink:href="#DejaVuSans-30"/>
       <use x="63.623047" xlink:href="#DejaVuSans-2e"/>
       <use x="95.410156" xlink:href="#DejaVuSans-30"/>
      </g>
     </g>
    </g>
    <g id="ytick_2">
     <g id="line2d_8">
      <g>
       <use style="stroke:#000000;stroke-width:0.8;" x="47.38125" xlink:href="#m1cec95845f" y="315.594844"/>
      </g>
     </g>
     <g id="text_9">
      <!-- 0.2 -->
      <g transform="translate(24.478125 319.394063)scale(0.1 -0.1)">
       <use xlink:href="#DejaVuSans-30"/>
       <use x="63.623047" xlink:href="#DejaVuSans-2e"/>
       <use x="95.410156" xlink:href="#DejaVuSans-32"/>
      </g>
     </g>
    </g>
    <g id="ytick_3">
     <g id="line2d_9">
      <g>
       <use style="stroke:#000000;stroke-width:0.8;" x="47.38125" xlink:href="#m1cec95845f" y="240.345938"/>
      </g>
     </g>
     <g id="text_10">
      <!-- 0.4 -->
      <g transform="translate(24.478125 244.145156)scale(0.1 -0.1)">
       <use xlink:href="#DejaVuSans-30"/>
       <use x="63.623047" xlink:href="#DejaVuSans-2e"/>
       <use x="95.410156" xlink:href="#DejaVuSans-34"/>
      </g>
     </g>
    </g>
    <g id="ytick_4">
     <g id="line2d_10">
      <g>
       <use style="stroke:#000000;stroke-width:0.8;" x="47.38125" xlink:href="#m1cec95845f" y="165.097031"/>
      </g>
     </g>
     <g id="text_11">
      <!-- 0.6 -->
      <g transform="translate(24.478125 168.89625)scale(0.1 -0.1)">
       <use xlink:href="#DejaVuSans-30"/>
       <use x="63.623047" xlink:href="#DejaVuSans-2e"/>
       <use x="95.410156" xlink:href="#DejaVuSans-36"/>
      </g>
     </g>
    </g>
    <g id="ytick_5">
     <g id="line2d_11">
      <g>
       <use style="stroke:#000000;stroke-width:0.8;" x="47.38125" xlink:href="#m1cec95845f" y="89.848125"/>
      </g>
     </g>
     <g id="text_12">
      <!-- 0.8 -->
      <g transform="translate(24.478125 93.647344)scale(0.1 -0.1)">
       <use xlink:href="#DejaVuSans-30"/>
       <use x="63.623047" xlink:href="#DejaVuSans-2e"/>
       <use x="95.410156" xlink:href="#DejaVuSans-38"/>
      </g>
     </g>
    </g>
    <g id="ytick_6">
     <g id="line2d_12">
      <g>
       <use style="stroke:#000000;stroke-width:0.8;" x="47.38125" xlink:href="#m1cec95845f" y="14.599219"/>
      </g>
     </g>
     <g id="text_13">
      <!-- 1.0 -->
      <g transform="translate(24.478125 18.398438)scale(0.1 -0.1)">
       <use xlink:href="#DejaVuSans-31"/>
       <use x="63.623047" xlink:href="#DejaVuSans-2e"/>
       <use x="95.410156" xlink:href="#DejaVuSans-30"/>
      </g>
     </g>
    </g>
    <g id="text_14">
     <!-- Precision -->
     <g transform="translate(18.398438 225.028516)rotate(-90)scale(0.1 -0.1)">
      <defs>
       <path d="M 1259 4147 
L 1259 2394 
L 2053 2394 
Q 2494 2394 2734 2622 
Q 2975 2850 2975 3272 
Q 2975 3691 2734 3919 
Q 2494 4147 2053 4147 
L 1259 4147 
z
M 628 4666 
L 2053 4666 
Q 2838 4666 3239 4311 
Q 3641 3956 3641 3272 
Q 3641 2581 3239 2228 
Q 2838 1875 2053 1875 
L 1259 1875 
L 1259 0 
L 628 0 
L 628 4666 
z
" id="DejaVuSans-50" transform="scale(0.015625)"/>
       <path d="M 2631 2963 
Q 2534 3019 2420 3045 
Q 2306 3072 2169 3072 
Q 1681 3072 1420 2755 
Q 1159 2438 1159 1844 
L 1159 0 
L 581 0 
L 581 3500 
L 1159 3500 
L 1159 2956 
Q 1341 3275 1631 3429 
Q 1922 3584 2338 3584 
Q 2397 3584 2469 3576 
Q 2541 3569 2628 3553 
L 2631 2963 
z
" id="DejaVuSans-72" transform="scale(0.015625)"/>
       <path d="M 603 3500 
L 1178 3500 
L 1178 0 
L 603 0 
L 603 3500 
z
M 603 4863 
L 1178 4863 
L 1178 4134 
L 603 4134 
L 603 4863 
z
" id="DejaVuSans-69" transform="scale(0.015625)"/>
       <path d="M 2834 3397 
L 2834 2853 
Q 2591 2978 2328 3040 
Q 2066 3103 1784 3103 
Q 1356 3103 1142 2972 
Q 928 2841 928 2578 
Q 928 2378 1081 2264 
Q 1234 2150 1697 2047 
L 1894 2003 
Q 2506 1872 2764 1633 
Q 3022 1394 3022 966 
Q 3022 478 2636 193 
Q 2250 -91 1575 -91 
Q 1294 -91 989 -36 
Q 684 19 347 128 
L 347 722 
Q 666 556 975 473 
Q 1284 391 1588 391 
Q 1994 391 2212 530 
Q 2431 669 2431 922 
Q 2431 1156 2273 1281 
Q 2116 1406 1581 1522 
L 1381 1569 
Q 847 1681 609 1914 
Q 372 2147 372 2553 
Q 372 3047 722 3315 
Q 1072 3584 1716 3584 
Q 2034 3584 2315 3537 
Q 2597 3491 2834 3397 
z
" id="DejaVuSans-73" transform="scale(0.015625)"/>
       <path d="M 1959 3097 
Q 1497 3097 1228 2736 
Q 959 2375 959 1747 
Q 959 1119 1226 758 
Q 1494 397 1959 397 
Q 2419 397 2687 759 
Q 2956 1122 2956 1747 
Q 2956 2369 2687 2733 
Q 2419 3097 1959 3097 
z
M 1959 3584 
Q 2709 3584 3137 3096 
Q 3566 2609 3566 1747 
Q 3566 888 3137 398 
Q 2709 -91 1959 -91 
Q 1206 -91 779 398 
Q 353 888 353 1747 
Q 353 2609 779 3096 
Q 1206 3584 1959 3584 
z
" id="DejaVuSans-6f" transform="scale(0.015625)"/>
       <path d="M 3513 2113 
L 3513 0 
L 2938 0 
L 2938 2094 
Q 2938 2591 2744 2837 
Q 2550 3084 2163 3084 
Q 1697 3084 1428 2787 
Q 1159 2491 1159 1978 
L 1159 0 
L 581 0 
L 581 3500 
L 1159 3500 
L 1159 2956 
Q 1366 3272 1645 3428 
Q 1925 3584 2291 3584 
Q 2894 3584 3203 3211 
Q 3513 2838 3513 2113 
z
" id="DejaVuSans-6e" transform="scale(0.015625)"/>
      </defs>
      <use xlink:href="#DejaVuSans-50"/>
      <use x="58.552734" xlink:href="#DejaVuSans-72"/>
      <use x="97.416016" xlink:href="#DejaVuSans-65"/>
      <use x="158.939453" xlink:href="#DejaVuSans-63"/>
      <use x="213.919922" xlink:href="#DejaVuSans-69"/>
      <use x="241.703125" xlink:href="#DejaVuSans-73"/>
      <use x="293.802734" xlink:href="#DejaVuSans-69"/>
      <use x="321.585938" xlink:href="#DejaVuSans-6f"/>
      <use x="382.767578" xlink:href="#DejaVuSans-6e"/>
     </g>
    </g>
   </g>
   <g id="line2d_13">
    <path clip-path="url(#p98e500ff3e)" d="M 47.38125 14.599219 
L 110.86826 14.599219 
L 111.45071 15.328375 
L 174.355271 15.328375 
L 174.937721 15.749814 
L 207.5549 15.749814 
L 208.13735 16.304254 
L 209.302249 16.304254 
L 209.884699 16.709988 
L 222.116141 16.709988 
L 222.698591 16.998737 
L 239.007181 16.998737 
L 239.58963 17.456772 
L 240.17208 17.456772 
L 240.75453 17.629957 
L 259.392918 17.629957 
L 259.975368 17.984996 
L 264.052515 17.984996 
L 264.634965 18.156152 
L 330.451774 18.167055 
L 331.034223 18.355404 
L 363.651403 18.367461 
L 364.233853 18.641754 
L 364.816302 18.641754 
L 365.398752 18.789024 
L 375.300396 18.789024 
L 375.882845 18.958315 
L 383.454691 18.958315 
L 384.03714 19.111145 
L 412.577172 19.111145 
L 413.159622 19.336559 
L 414.324521 19.336559 
L 414.906971 19.514235 
L 419.566568 19.514235 
L 420.149018 19.73984 
L 420.731467 19.73984 
L 421.896367 20.182202 
L 423.643716 20.182202 
L 424.226165 20.376486 
L 426.555964 20.376486 
L 427.138413 20.511295 
L 432.96291 20.511295 
L 433.545359 20.732358 
L 434.127809 20.732358 
L 434.710259 20.893272 
L 438.204957 20.893272 
L 438.787406 21.110249 
L 439.369856 21.110249 
L 439.952305 21.224047 
L 445.776802 21.224047 
L 446.359251 21.604372 
L 449.853949 21.604372 
L 450.436399 21.787174 
L 452.183748 21.787174 
L 452.766197 22.768848 
L 458.008244 22.768848 
L 458.590694 22.955322 
L 459.755593 22.955322 
L 460.338043 23.150231 
L 460.920492 23.573056 
L 461.502942 23.749346 
L 462.667841 23.749346 
L 463.250291 23.929389 
L 463.832741 23.929389 
L 464.41519 24.113448 
L 464.99764 24.113448 
L 466.162539 24.517413 
L 466.744989 24.866267 
L 469.074787 24.866267 
L 469.657237 25.24564 
L 470.239687 25.24564 
L 473.151935 26.179213 
L 474.316834 26.179213 
L 474.899284 26.33721 
L 476.064183 26.33721 
L 476.646633 26.890707 
L 481.888679 26.982473 
L 482.471129 27.367232 
L 483.053579 27.926682 
L 483.636028 27.926682 
L 484.218478 28.579226 
L 487.713176 28.579226 
L 488.295625 28.930421 
L 488.878075 28.930421 
L 489.460525 29.48804 
L 490.042974 29.48804 
L 490.625424 29.66507 
L 491.207873 30.14322 
L 493.537672 30.14322 
L 494.120122 30.508078 
L 494.702571 32.750502 
L 495.867471 33.803367 
L 496.44992 33.803367 
L 497.03237 34.884046 
L 498.197269 34.983984 
L 498.779719 34.983984 
L 499.362168 35.125168 
L 499.944618 35.125168 
L 500.527068 36.027204 
L 501.109517 36.357475 
L 501.691967 36.866752 
L 502.856866 37.50604 
L 503.439316 37.50604 
L 504.021766 38.197763 
L 504.604215 38.35203 
L 505.769114 39.178007 
L 506.351564 39.431358 
L 507.516463 39.431358 
L 508.098913 40.443791 
L 508.681363 40.443791 
L 509.846262 41.938787 
L 510.428712 42.070452 
L 511.011161 42.729651 
L 511.593611 42.859117 
L 513.34096 45.14508 
L 513.923409 46.604553 
L 514.505859 47.158842 
L 515.670758 47.158842 
L 516.835658 48.884861 
L 517.418107 49.989441 
L 518.000557 50.423544 
L 518.583006 51.656291 
L 519.747906 51.763542 
L 520.330355 53.926692 
L 521.495255 55.260154 
L 522.077704 55.514288 
L 522.660154 55.902816 
L 523.242604 56.65415 
L 523.825053 58.580315 
L 524.407503 58.863281 
L 524.989952 61.502331 
L 525.572402 61.757009 
L 527.319751 61.904324 
L 527.902201 64.060955 
L 528.48465 67.164012 
L 529.0671 72.307435 
L 529.64955 74.694953 
L 530.231999 75.590099 
L 530.814449 78.077525 
L 531.396898 79.971112 
L 531.979348 81.217652 
L 532.561798 85.62972 
L 533.144247 87.787775 
L 533.726697 90.426728 
L 534.309147 94.322222 
L 534.891596 94.934532 
L 535.474046 97.088162 
L 536.056496 100.422222 
L 536.638945 101.480947 
L 537.221395 105.064743 
L 537.803844 110.841275 
L 538.386294 111.187367 
L 538.968744 112.567936 
L 539.551193 116.524535 
L 540.716093 120.902801 
L 541.298542 133.06801 
L 541.880992 137.827816 
L 542.463442 146.776826 
L 543.628341 150.634349 
L 544.21079 154.621709 
L 544.79324 156.431442 
L 545.37569 160.046922 
L 546.540589 182.78936 
L 547.123039 186.872724 
L 547.705488 201.274031 
L 548.287938 206.353188 
L 548.870388 220.250487 
L 549.452837 225.882469 
L 550.617736 240.493196 
L 551.782636 266.863027 
L 552.365085 273.592793 
L 552.947535 276.147327 
L 553.529985 280.212123 
L 554.112434 291.885229 
L 554.694884 293.211144 
L 629.248438 390.84375 
L 629.248438 390.84375 
" style="fill:none;stroke:#1f77b4;stroke-linecap:square;stroke-width:2;"/>
   </g>
   <g id="line2d_14">
    <path clip-path="url(#p98e500ff3e)" d="M 47.38125 14.599219 
L 126.011951 14.599219 
L 126.594401 15.275918 
L 183.674465 15.275918 
L 184.256915 15.765868 
L 205.807551 15.765868 
L 206.390001 16.247005 
L 215.126745 16.247005 
L 215.709195 16.646251 
L 272.20681 16.646251 
L 272.78926 16.985548 
L 278.613756 16.985548 
L 279.196206 17.204275 
L 319.96768 17.298731 
L 320.55013 17.505829 
L 332.199123 17.505829 
L 332.781572 17.752987 
L 338.606069 17.752987 
L 339.188518 18.336747 
L 342.100766 18.336747 
L 342.683216 18.572557 
L 347.342813 18.572557 
L 347.925263 18.796369 
L 353.167309 18.796369 
L 353.749759 19.071222 
L 354.332209 19.071222 
L 354.914658 19.262203 
L 361.321604 19.262203 
L 361.904054 19.504247 
L 364.233853 19.504247 
L 366.563651 20.589465 
L 367.146101 20.589465 
L 367.72855 20.818137 
L 370.058349 20.818137 
L 370.640799 21.014063 
L 382.289791 21.12369 
L 382.872241 21.351633 
L 384.61959 21.351633 
L 385.20204 21.586617 
L 385.784489 21.586617 
L 386.366939 21.758206 
L 390.444086 21.758206 
L 391.026536 21.966245 
L 392.773885 21.966245 
L 393.356334 22.0931 
L 399.180831 22.0931 
L 399.76328 22.28814 
L 401.510629 22.28814 
L 402.093079 22.458774 
L 405.587777 22.458774 
L 406.170226 22.685065 
L 407.335126 22.767686 
L 413.742072 22.767686 
L 414.324521 23.463619 
L 414.906971 23.463619 
L 416.07187 23.841166 
L 418.984118 23.841166 
L 419.566568 24.142517 
L 425.973514 24.142517 
L 426.555964 24.325591 
L 428.303313 24.325591 
L 428.885762 24.463308 
L 431.798011 24.463308 
L 432.38046 24.579795 
L 435.875158 24.579795 
L 436.457608 24.799317 
L 437.622507 24.885369 
L 441.699654 24.885369 
L 442.282104 25.018995 
L 445.194352 25.018995 
L 446.359251 25.381152 
L 448.1066 25.381152 
L 448.68905 25.783658 
L 449.2715 25.783658 
L 450.436399 26.162289 
L 451.601298 26.162289 
L 453.348647 26.630294 
L 457.425795 26.630294 
L 458.590694 26.743134 
L 460.920492 26.743134 
L 463.832741 27.661778 
L 464.99764 27.661778 
L 466.162539 27.968314 
L 468.492338 27.968314 
L 469.074787 28.134716 
L 469.657237 28.134716 
L 471.404586 28.705757 
L 471.987035 29.086313 
L 472.569485 29.255377 
L 473.151935 29.255377 
L 473.734384 29.5907 
L 474.899284 29.5907 
L 475.481733 29.973098 
L 476.064183 30.155084 
L 476.646633 30.723984 
L 477.811532 30.806044 
L 479.558881 30.806044 
L 480.14133 31.126229 
L 484.800927 31.204198 
L 485.383377 31.388625 
L 485.965827 31.728723 
L 486.548276 31.728723 
L 487.130726 31.874728 
L 487.713176 31.874728 
L 488.878075 32.591784 
L 489.460525 32.743497 
L 490.042974 32.743497 
L 490.625424 33.06399 
L 491.207873 33.06399 
L 491.790323 33.193849 
L 492.955222 33.193849 
L 493.537672 33.696927 
L 494.120122 33.696927 
L 494.702571 34.029688 
L 495.285021 34.029688 
L 495.867471 34.164717 
L 496.44992 34.164717 
L 497.03237 34.524942 
L 498.197269 34.821147 
L 498.779719 34.821147 
L 499.944618 35.84506 
L 500.527068 35.84506 
L 501.109517 36.175966 
L 502.856866 36.573887 
L 504.021766 36.573887 
L 505.186665 37.25767 
L 506.351564 38.268351 
L 507.516463 39.431358 
L 508.681363 39.732203 
L 509.263812 40.392435 
L 509.846262 40.514972 
L 510.428712 40.514972 
L 511.011161 40.64978 
L 511.593611 40.982786 
L 512.17606 42.133814 
L 513.923409 42.564582 
L 515.088309 44.70608 
L 515.670758 44.982602 
L 516.835658 48.214951 
L 517.418107 48.362451 
L 518.583006 49.095748 
L 519.747906 49.677388 
L 520.330355 50.432031 
L 520.912805 51.676343 
L 521.495255 52.082888 
L 522.077704 52.223672 
L 523.242604 53.237714 
L 524.407503 54.414375 
L 525.572402 56.939637 
L 526.154852 57.510319 
L 526.737301 59.673722 
L 527.319751 59.673722 
L 528.48465 60.466186 
L 529.0671 61.313578 
L 529.64955 66.191833 
L 530.231999 66.717525 
L 531.979348 67.408355 
L 532.561798 68.067273 
L 533.144247 68.278299 
L 534.309147 71.100657 
L 534.891596 72.804569 
L 535.474046 73.837719 
L 536.056496 75.104052 
L 536.638945 77.174958 
L 537.221395 78.172113 
L 537.803844 82.598951 
L 538.386294 83.806017 
L 539.551193 87.875875 
L 540.133643 91.316543 
L 540.716093 92.56114 
L 541.298542 95.043813 
L 541.880992 99.097894 
L 542.463442 105.284527 
L 543.628341 111.470736 
L 544.21079 117.70404 
L 545.37569 124.639213 
L 545.958139 130.890647 
L 546.540589 138.477014 
L 547.123039 139.393811 
L 547.705488 152.089015 
L 548.287938 158.039582 
L 548.870388 162.19679 
L 549.452837 174.527038 
L 550.617736 186.184365 
L 551.782636 194.717301 
L 552.365085 210.636867 
L 552.947535 219.169104 
L 553.529985 221.004255 
L 554.112434 225.905849 
L 554.694884 226.968354 
L 555.277334 233.948257 
L 555.859783 251.890569 
L 556.442233 255.487486 
L 557.024682 262.74469 
L 557.607132 266.21162 
L 558.189582 271.20307 
L 558.772031 278.366095 
L 559.354481 282.916968 
L 629.248438 390.84375 
L 629.248438 390.84375 
" style="fill:none;stroke:#ff7f0e;stroke-linecap:square;stroke-width:2;"/>
   </g>
   <g id="line2d_15">
    <path clip-path="url(#p98e500ff3e)" d="M 47.38125 14.599219 
L 160.37648 14.599219 
L 160.958929 15.389648 
L 164.453627 15.389648 
L 165.036077 15.59326 
L 233.182684 15.59326 
L 233.765134 16.019009 
L 242.501878 16.019009 
L 243.084328 16.421226 
L 249.491274 16.421226 
L 250.073724 16.626398 
L 274.536608 16.626398 
L 275.119058 16.912197 
L 286.185601 16.912197 
L 286.768051 17.214623 
L 293.757447 17.214623 
L 294.339896 17.381064 
L 311.813385 17.381064 
L 312.395835 17.69164 
L 314.725633 17.69164 
L 315.308083 17.92 
L 324.044828 17.92 
L 324.627277 18.236029 
L 325.209727 18.236029 
L 325.792177 18.481364 
L 331.034223 18.481364 
L 331.616673 18.737272 
L 335.111371 18.737272 
L 335.69382 18.977792 
L 340.353417 18.977792 
L 340.935867 19.497439 
L 346.177914 19.497439 
L 346.760363 19.6917 
L 352.58486 19.6917 
L 353.167309 19.940229 
L 355.497108 19.940229 
L 356.079558 20.197219 
L 357.244457 20.197219 
L 357.826907 20.339029 
L 365.398752 20.339029 
L 365.981202 20.486801 
L 372.970597 20.486801 
L 373.553047 20.730611 
L 374.717946 20.730611 
L 375.300396 20.934229 
L 378.212644 20.934229 
L 378.795094 21.095527 
L 384.03714 21.095527 
L 384.61959 21.270221 
L 388.696737 21.270221 
L 389.279187 21.430474 
L 393.938784 21.430474 
L 394.521234 21.614828 
L 397.433482 21.614828 
L 398.015932 21.785335 
L 408.500025 21.892729 
L 409.082475 22.054527 
L 413.159622 22.054527 
L 413.742072 22.509748 
L 414.324521 22.509748 
L 414.906971 22.719604 
L 416.07187 22.719604 
L 416.65432 22.949293 
L 417.23677 23.320921 
L 421.313917 23.320921 
L 421.896367 23.517251 
L 423.061266 23.517251 
L 423.643716 23.93353 
L 424.808615 23.93353 
L 425.391065 24.130429 
L 426.555964 24.130429 
L 427.138413 24.276776 
L 430.050662 24.276776 
L 430.633111 24.592125 
L 435.875158 24.592125 
L 436.457608 24.73065 
L 439.369856 24.73065 
L 439.952305 24.9293 
L 440.534755 25.336009 
L 441.699654 25.336009 
L 442.864554 25.665234 
L 445.776802 25.665234 
L 446.359251 25.790311 
L 449.2715 25.790311 
L 449.853949 25.953344 
L 451.018849 25.953344 
L 451.601298 26.141824 
L 452.183748 26.141824 
L 452.766197 26.494538 
L 455.095996 26.494538 
L 456.260895 26.870444 
L 456.843345 26.870444 
L 457.425795 27.024444 
L 458.590694 27.024444 
L 459.173143 27.603062 
L 460.338043 27.603062 
L 460.920492 27.974884 
L 461.502942 27.974884 
L 463.250291 28.534201 
L 463.832741 28.534201 
L 464.41519 28.922164 
L 464.99764 29.053811 
L 466.744989 29.053811 
L 467.909888 29.370457 
L 469.657237 29.370457 
L 471.987035 30.024202 
L 473.734384 30.024202 
L 474.899284 30.336469 
L 476.064183 30.336469 
L 476.646633 30.912785 
L 477.811532 31.270886 
L 478.976431 32.778243 
L 479.558881 32.778243 
L 480.14133 33.136443 
L 481.30623 33.482511 
L 481.888679 33.997433 
L 485.383377 34.063603 
L 485.965827 35.379586 
L 486.548276 35.501693 
L 487.130726 35.501693 
L 487.713176 36.0535 
L 488.295625 37.497627 
L 488.878075 37.634598 
L 489.460525 37.634598 
L 490.625424 38.298119 
L 491.207873 39.136906 
L 492.372773 39.136906 
L 492.955222 39.47489 
L 494.120122 40.493809 
L 494.702571 41.528786 
L 497.03237 42.129306 
L 497.61482 44.721515 
L 498.197269 45.182066 
L 498.779719 45.182066 
L 499.362168 45.984252 
L 499.944618 46.140676 
L 500.527068 46.45259 
L 501.109517 47.939699 
L 501.691967 48.870631 
L 502.274417 48.870631 
L 502.856866 49.005061 
L 503.439316 49.975786 
L 504.021766 51.216691 
L 504.604215 51.216691 
L 505.186665 51.511018 
L 505.769114 52.605554 
L 506.351564 53.021107 
L 506.934014 53.021107 
L 507.516463 53.614494 
L 508.098913 54.866192 
L 508.681363 54.988064 
L 509.263812 56.5231 
L 510.428712 57.841643 
L 511.011161 57.957596 
L 511.593611 58.229453 
L 512.17606 60.930446 
L 512.75851 61.0621 
L 514.505859 63.291719 
L 515.088309 63.291719 
L 515.670758 64.272435 
L 516.253208 65.563251 
L 516.835658 66.230601 
L 517.418107 69.958991 
L 518.000557 71.621168 
L 518.583006 74.632962 
L 519.747906 78.502103 
L 520.330355 80.833765 
L 521.495255 91.126172 
L 522.077704 99.937701 
L 522.660154 100.335357 
L 523.825053 108.075212 
L 524.989952 112.855987 
L 525.572402 116.336646 
L 526.154852 118.815872 
L 526.737301 122.491857 
L 527.319751 128.469788 
L 527.902201 129.882685 
L 528.48465 138.288961 
L 529.0671 141.206462 
L 529.64955 151.159327 
L 530.231999 153.31135 
L 530.814449 161.637311 
L 531.396898 165.761734 
L 531.979348 168.512296 
L 532.561798 173.384356 
L 533.144247 177.255625 
L 533.726697 179.714495 
L 534.309147 181.229378 
L 535.474046 204.18272 
L 536.056496 211.881671 
L 536.638945 214.700968 
L 537.221395 221.81868 
L 538.386294 227.487362 
L 538.968744 228.385631 
L 540.133643 245.900058 
L 540.716093 248.201593 
L 541.298542 253.285346 
L 541.880992 253.567189 
L 542.463442 256.989444 
L 543.045891 263.293556 
L 544.21079 267.146918 
L 544.79324 270.402528 
L 545.37569 271.737975 
L 545.958139 285.858552 
L 546.540589 290.435846 
L 547.123039 294.011898 
L 547.705488 300.370355 
L 548.287938 303.05768 
L 548.870388 304.410344 
L 549.452837 311.315877 
L 552.365085 329.823879 
L 552.947535 330.603505 
L 553.529985 334.367289 
L 629.248438 390.84375 
L 629.248438 390.84375 
" style="fill:none;stroke:#2ca02c;stroke-linecap:square;stroke-width:2;"/>
   </g>
   <g id="line2d_16">
    <path clip-path="url(#p98e500ff3e)" d="M 47.38125 14.599219 
L 90.482523 14.599219 
L 91.064973 15.924023 
L 184.839364 15.940554 
L 185.421814 16.309421 
L 209.302249 16.309421 
L 209.884699 16.815681 
L 213.379397 16.815681 
L 213.961846 17.055657 
L 302.494191 17.12435 
L 303.076641 17.330577 
L 317.055432 17.330577 
L 317.637882 17.628021 
L 320.55013 17.628021 
L 321.132579 17.760938 
L 338.023619 17.760938 
L 338.606069 18.033816 
L 341.518317 18.033816 
L 342.100766 18.290907 
L 345.595464 18.290907 
L 346.760363 18.796369 
L 353.167309 18.796369 
L 353.749759 18.994599 
L 360.156705 18.994599 
L 360.739155 19.265818 
L 374.135496 19.358264 
L 374.717946 19.597301 
L 376.465295 19.597301 
L 377.047745 19.794456 
L 381.707342 19.794456 
L 382.289791 20.028433 
L 384.03714 20.028433 
L 384.61959 20.806984 
L 385.20204 20.806984 
L 385.784489 20.931525 
L 405.005327 20.96761 
L 405.587777 21.177805 
L 407.335126 21.177805 
L 407.917575 21.603771 
L 410.829824 21.603771 
L 411.412273 21.787026 
L 414.324521 21.787026 
L 414.906971 21.986219 
L 416.65432 21.986219 
L 417.819219 22.402087 
L 419.566568 22.402087 
L 421.313917 23.073195 
L 421.896367 23.073195 
L 422.478816 23.259579 
L 423.643716 23.259579 
L 424.808615 23.642414 
L 427.720863 23.642414 
L 428.885762 24.058541 
L 429.468212 24.058541 
L 430.050662 24.270708 
L 430.633111 24.723446 
L 431.215561 24.907288 
L 437.622507 24.999098 
L 438.204957 25.375266 
L 439.952305 25.375266 
L 441.699654 25.993662 
L 442.282104 26.349799 
L 444.611903 26.349799 
L 445.776802 26.757929 
L 446.359251 27.387494 
L 448.1066 27.925471 
L 449.853949 27.925471 
L 450.436399 28.091821 
L 451.601298 28.091821 
L 452.183748 28.288867 
L 452.766197 29.061734 
L 453.931097 29.061734 
L 455.095996 29.456726 
L 455.678446 30.040468 
L 456.260895 30.040468 
L 456.843345 30.176911 
L 458.008244 30.176911 
L 458.590694 30.499901 
L 460.338043 30.499901 
L 461.502942 30.883151 
L 462.085392 31.235882 
L 462.667841 31.235882 
L 463.832741 31.604621 
L 464.41519 31.970869 
L 464.99764 31.970869 
L 465.580089 32.334651 
L 466.162539 32.495573 
L 466.744989 32.495573 
L 467.327438 33.065208 
L 467.909888 33.243853 
L 468.492338 33.631043 
L 469.074787 34.379645 
L 469.657237 34.55473 
L 470.239687 34.880827 
L 471.404586 34.880827 
L 471.987035 35.181524 
L 473.151935 35.181524 
L 473.734384 35.330641 
L 474.316834 35.330641 
L 476.064183 35.830598 
L 476.646633 36.551898 
L 477.229082 36.73125 
L 477.811532 37.27919 
L 478.393981 37.622234 
L 478.976431 38.164856 
L 479.558881 38.452761 
L 480.72378 38.452761 
L 481.30623 38.802083 
L 482.471129 40.410189 
L 483.053579 40.738313 
L 483.636028 41.234254 
L 484.218478 41.234254 
L 484.800927 41.740748 
L 485.383377 42.621598 
L 486.548276 43.586 
L 487.130726 43.586 
L 487.713176 43.750396 
L 488.295625 45.309116 
L 488.878075 45.808443 
L 489.460525 46.640441 
L 490.042974 47.814109 
L 490.625424 47.971136 
L 491.207873 49.303225 
L 491.790323 49.541607 
L 492.372773 49.541607 
L 492.955222 49.86625 
L 493.537672 50.324587 
L 494.120122 51.662113 
L 494.702571 53.450556 
L 495.285021 53.578672 
L 495.867471 54.845199 
L 496.44992 55.443368 
L 497.03237 55.750964 
L 498.197269 57.113756 
L 499.362168 58.297981 
L 499.944618 60.955995 
L 500.527068 61.226282 
L 501.691967 63.913683 
L 502.274417 66.137156 
L 502.856866 66.543426 
L 503.439316 67.80023 
L 504.021766 67.925215 
L 504.604215 69.486249 
L 505.186665 69.878489 
L 505.769114 70.415715 
L 506.934014 72.92906 
L 507.516463 74.567955 
L 508.098913 76.634175 
L 508.681363 77.278709 
L 509.263812 81.732723 
L 509.846262 82.349545 
L 510.428712 86.642599 
L 511.011161 88.401031 
L 511.593611 92.666792 
L 512.75851 94.246808 
L 513.34096 94.304065 
L 513.923409 104.000859 
L 515.088309 107.727576 
L 515.670758 110.174488 
L 516.253208 110.649115 
L 516.835658 112.279493 
L 517.418107 114.776678 
L 518.000557 115.017786 
L 518.583006 116.480842 
L 519.165456 122.837783 
L 519.747906 123.453349 
L 520.912805 133.906052 
L 521.495255 134.688591 
L 522.077704 137.559246 
L 523.242604 146.960504 
L 524.407503 154.161966 
L 524.989952 155.250244 
L 525.572402 159.198434 
L 526.154852 161.507002 
L 526.737301 167.735331 
L 527.319751 168.926724 
L 527.902201 172.143902 
L 528.48465 177.036086 
L 529.0671 180.069147 
L 529.64955 187.55536 
L 530.231999 188.68713 
L 530.814449 195.860789 
L 531.396898 199.407413 
L 531.979348 201.420767 
L 533.144247 211.632061 
L 533.726697 212.826853 
L 534.309147 225.640782 
L 534.891596 229.444556 
L 535.474046 234.470078 
L 536.056496 244.837311 
L 536.638945 247.797323 
L 537.803844 263.725479 
L 538.386294 265.554698 
L 538.968744 268.815189 
L 539.551193 281.05995 
L 540.133643 286.121832 
L 540.716093 288.981308 
L 541.298542 289.934483 
L 541.880992 295.775539 
L 542.463442 304.811965 
L 543.045891 305.339427 
L 543.628341 305.601179 
L 544.21079 309.019697 
L 544.79324 310.225629 
L 545.37569 314.956186 
L 545.958139 317.196659 
L 547.123039 319.932763 
L 547.705488 325.272287 
L 548.287938 328.320943 
L 548.870388 330.193776 
L 550.617736 333.349824 
L 551.200186 335.409178 
L 551.782636 336.510301 
L 552.365085 338.449768 
L 552.947535 339.609177 
L 553.529985 340.182635 
L 554.112434 341.936956 
L 554.694884 342.669663 
L 555.277334 342.935249 
L 556.442233 345.509116 
L 557.024682 348.871925 
L 558.189582 353.331544 
L 558.772031 355.00518 
L 559.354481 356.241381 
L 559.936931 356.69197 
L 560.51938 357.941317 
L 561.10183 357.967708 
L 561.68428 359.116132 
L 562.849179 360.131409 
L 563.431629 361.54126 
L 564.014078 361.982363 
L 564.596528 364.273989 
L 565.178977 364.696018 
L 629.248438 390.84375 
L 629.248438 390.84375 
" style="fill:none;stroke:#d62728;stroke-linecap:square;stroke-width:2;"/>
   </g>
   <g id="patch_3">
    <path d="M 47.38125 390.84375 
L 47.38125 14.599219 
" style="fill:none;stroke:#000000;stroke-linecap:square;stroke-linejoin:miter;stroke-width:0.8;"/>
   </g>
   <g id="patch_4">
    <path d="M 629.248438 390.84375 
L 629.248438 14.599219 
" style="fill:none;stroke:#000000;stroke-linecap:square;stroke-linejoin:miter;stroke-width:0.8;"/>
   </g>
   <g id="patch_5">
    <path d="M 47.38125 390.84375 
L 629.248438 390.84375 
" style="fill:none;stroke:#000000;stroke-linecap:square;stroke-linejoin:miter;stroke-width:0.8;"/>
   </g>
   <g id="patch_6">
    <path d="M 47.38125 14.599219 
L 629.248438 14.599219 
" style="fill:none;stroke:#000000;stroke-linecap:square;stroke-linejoin:miter;stroke-width:0.8;"/>
   </g>
   <g id="legend_1">
    <g id="patch_7">
     <path d="M 54.38125 385.84375 
L 311.948438 385.84375 
Q 313.948438 385.84375 313.948438 383.84375 
L 313.948438 325.853125 
Q 313.948438 323.853125 311.948438 323.853125 
L 54.38125 323.853125 
Q 52.38125 323.853125 52.38125 325.853125 
L 52.38125 383.84375 
Q 52.38125 385.84375 54.38125 385.84375 
z
" style="fill:#ffffff;opacity:0.8;stroke:#cccccc;stroke-linejoin:miter;"/>
    </g>
    <g id="line2d_17">
     <path d="M 56.38125 331.951563 
L 76.38125 331.951563 
" style="fill:none;stroke:#1f77b4;stroke-linecap:square;stroke-width:2;"/>
    </g>
    <g id="line2d_18"/>
    <g id="text_15">
     <!-- YOLOv5m  all classes 0.860 mAP@0.5 -->
     <g transform="translate(84.38125 335.451563)scale(0.1 -0.1)">
      <defs>
       <path d="M -13 4666 
L 666 4666 
L 1959 2747 
L 3244 4666 
L 3922 4666 
L 2272 2222 
L 2272 0 
L 1638 0 
L 1638 2222 
L -13 4666 
z
" id="DejaVuSans-59" transform="scale(0.015625)"/>
       <path d="M 2522 4238 
Q 1834 4238 1429 3725 
Q 1025 3213 1025 2328 
Q 1025 1447 1429 934 
Q 1834 422 2522 422 
Q 3209 422 3611 934 
Q 4013 1447 4013 2328 
Q 4013 3213 3611 3725 
Q 3209 4238 2522 4238 
z
M 2522 4750 
Q 3503 4750 4090 4092 
Q 4678 3434 4678 2328 
Q 4678 1225 4090 567 
Q 3503 -91 2522 -91 
Q 1538 -91 948 565 
Q 359 1222 359 2328 
Q 359 3434 948 4092 
Q 1538 4750 2522 4750 
z
" id="DejaVuSans-4f" transform="scale(0.015625)"/>
       <path d="M 628 4666 
L 1259 4666 
L 1259 531 
L 3531 531 
L 3531 0 
L 628 0 
L 628 4666 
z
" id="DejaVuSans-4c" transform="scale(0.015625)"/>
       <path d="M 191 3500 
L 800 3500 
L 1894 563 
L 2988 3500 
L 3597 3500 
L 2284 0 
L 1503 0 
L 191 3500 
z
" id="DejaVuSans-76" transform="scale(0.015625)"/>
       <path d="M 691 4666 
L 3169 4666 
L 3169 4134 
L 1269 4134 
L 1269 2991 
Q 1406 3038 1543 3061 
Q 1681 3084 1819 3084 
Q 2600 3084 3056 2656 
Q 3513 2228 3513 1497 
Q 3513 744 3044 326 
Q 2575 -91 1722 -91 
Q 1428 -91 1123 -41 
Q 819 9 494 109 
L 494 744 
Q 775 591 1075 516 
Q 1375 441 1709 441 
Q 2250 441 2565 725 
Q 2881 1009 2881 1497 
Q 2881 1984 2565 2268 
Q 2250 2553 1709 2553 
Q 1456 2553 1204 2497 
Q 953 2441 691 2322 
L 691 4666 
z
" id="DejaVuSans-35" transform="scale(0.015625)"/>
       <path d="M 3328 2828 
Q 3544 3216 3844 3400 
Q 4144 3584 4550 3584 
Q 5097 3584 5394 3201 
Q 5691 2819 5691 2113 
L 5691 0 
L 5113 0 
L 5113 2094 
Q 5113 2597 4934 2840 
Q 4756 3084 4391 3084 
Q 3944 3084 3684 2787 
Q 3425 2491 3425 1978 
L 3425 0 
L 2847 0 
L 2847 2094 
Q 2847 2600 2669 2842 
Q 2491 3084 2119 3084 
Q 1678 3084 1418 2786 
Q 1159 2488 1159 1978 
L 1159 0 
L 581 0 
L 581 3500 
L 1159 3500 
L 1159 2956 
Q 1356 3278 1631 3431 
Q 1906 3584 2284 3584 
Q 2666 3584 2933 3390 
Q 3200 3197 3328 2828 
z
" id="DejaVuSans-6d" transform="scale(0.015625)"/>
       <path id="DejaVuSans-20" transform="scale(0.015625)"/>
       <path d="M 2188 4044 
L 1331 1722 
L 3047 1722 
L 2188 4044 
z
M 1831 4666 
L 2547 4666 
L 4325 0 
L 3669 0 
L 3244 1197 
L 1141 1197 
L 716 0 
L 50 0 
L 1831 4666 
z
" id="DejaVuSans-41" transform="scale(0.015625)"/>
       <path d="M 2381 1678 
Q 2381 1231 2603 976 
Q 2825 722 3213 722 
Q 3597 722 3817 978 
Q 4038 1234 4038 1678 
Q 4038 2116 3813 2373 
Q 3588 2631 3206 2631 
Q 2828 2631 2604 2375 
Q 2381 2119 2381 1678 
z
M 4084 744 
Q 3897 503 3655 389 
Q 3413 275 3091 275 
Q 2553 275 2217 664 
Q 1881 1053 1881 1678 
Q 1881 2303 2218 2693 
Q 2556 3084 3091 3084 
Q 3413 3084 3656 2967 
Q 3900 2850 4084 2613 
L 4084 3022 
L 4531 3022 
L 4531 722 
Q 4988 791 5245 1139 
Q 5503 1488 5503 2041 
Q 5503 2375 5404 2669 
Q 5306 2963 5106 3213 
Q 4781 3622 4314 3839 
Q 3847 4056 3297 4056 
Q 2913 4056 2559 3954 
Q 2206 3853 1906 3653 
Q 1416 3334 1139 2817 
Q 863 2300 863 1697 
Q 863 1200 1042 765 
Q 1222 331 1563 0 
Q 1891 -325 2322 -495 
Q 2753 -666 3244 -666 
Q 3647 -666 4036 -530 
Q 4425 -394 4750 -141 
L 5031 -488 
Q 4641 -791 4180 -952 
Q 3719 -1113 3244 -1113 
Q 2666 -1113 2153 -908 
Q 1641 -703 1241 -313 
Q 841 78 631 592 
Q 422 1106 422 1697 
Q 422 2266 634 2781 
Q 847 3297 1241 3688 
Q 1644 4084 2172 4295 
Q 2700 4506 3291 4506 
Q 3953 4506 4520 4234 
Q 5088 3963 5472 3463 
Q 5706 3156 5829 2797 
Q 5953 2438 5953 2053 
Q 5953 1231 5456 756 
Q 4959 281 4084 263 
L 4084 744 
z
" id="DejaVuSans-40" transform="scale(0.015625)"/>
      </defs>
      <use xlink:href="#DejaVuSans-59"/>
      <use x="55.583984" xlink:href="#DejaVuSans-4f"/>
      <use x="134.294922" xlink:href="#DejaVuSans-4c"/>
      <use x="186.382812" xlink:href="#DejaVuSans-4f"/>
      <use x="265.09375" xlink:href="#DejaVuSans-76"/>
      <use x="324.273438" xlink:href="#DejaVuSans-35"/>
      <use x="387.896484" xlink:href="#DejaVuSans-6d"/>
      <use x="485.308594" xlink:href="#DejaVuSans-20"/>
      <use x="517.095703" xlink:href="#DejaVuSans-20"/>
      <use x="548.882812" xlink:href="#DejaVuSans-61"/>
      <use x="610.162109" xlink:href="#DejaVuSans-6c"/>
      <use x="637.945312" xlink:href="#DejaVuSans-6c"/>
      <use x="665.728516" xlink:href="#DejaVuSans-20"/>
      <use x="697.515625" xlink:href="#DejaVuSans-63"/>
      <use x="752.496094" xlink:href="#DejaVuSans-6c"/>
      <use x="780.279297" xlink:href="#DejaVuSans-61"/>
      <use x="841.558594" xlink:href="#DejaVuSans-73"/>
      <use x="893.658203" xlink:href="#DejaVuSans-73"/>
      <use x="945.757812" xlink:href="#DejaVuSans-65"/>
      <use x="1007.28125" xlink:href="#DejaVuSans-73"/>
      <use x="1059.380859" xlink:href="#DejaVuSans-20"/>
      <use x="1091.167969" xlink:href="#DejaVuSans-30"/>
      <use x="1154.791016" xlink:href="#DejaVuSans-2e"/>
      <use x="1186.578125" xlink:href="#DejaVuSans-38"/>
      <use x="1250.201172" xlink:href="#DejaVuSans-36"/>
      <use x="1313.824219" xlink:href="#DejaVuSans-30"/>
      <use x="1377.447266" xlink:href="#DejaVuSans-20"/>
      <use x="1409.234375" xlink:href="#DejaVuSans-6d"/>
      <use x="1506.646484" xlink:href="#DejaVuSans-41"/>
      <use x="1575.054688" xlink:href="#DejaVuSans-50"/>
      <use x="1635.357422" xlink:href="#DejaVuSans-40"/>
      <use x="1735.357422" xlink:href="#DejaVuSans-30"/>
      <use x="1798.980469" xlink:href="#DejaVuSans-2e"/>
      <use x="1830.767578" xlink:href="#DejaVuSans-35"/>
     </g>
    </g>
    <g id="line2d_19">
     <path d="M 56.38125 346.629688 
L 76.38125 346.629688 
" style="fill:none;stroke:#ff7f0e;stroke-linecap:square;stroke-width:2;"/>
    </g>
    <g id="line2d_20"/>
    <g id="text_16">
     <!-- RDD-YOLOv5m_2  all classes 0.866 mAP@0.5 -->
     <g transform="translate(84.38125 350.129688)scale(0.1 -0.1)">
      <defs>
       <path d="M 1259 4147 
L 1259 519 
L 2022 519 
Q 2988 519 3436 956 
Q 3884 1394 3884 2338 
Q 3884 3275 3436 3711 
Q 2988 4147 2022 4147 
L 1259 4147 
z
M 628 4666 
L 1925 4666 
Q 3281 4666 3915 4102 
Q 4550 3538 4550 2338 
Q 4550 1131 3912 565 
Q 3275 0 1925 0 
L 628 0 
L 628 4666 
z
" id="DejaVuSans-44" transform="scale(0.015625)"/>
       <path d="M 313 2009 
L 1997 2009 
L 1997 1497 
L 313 1497 
L 313 2009 
z
" id="DejaVuSans-2d" transform="scale(0.015625)"/>
       <path d="M 3263 -1063 
L 3263 -1509 
L -63 -1509 
L -63 -1063 
L 3263 -1063 
z
" id="DejaVuSans-5f" transform="scale(0.015625)"/>
      </defs>
      <use xlink:href="#DejaVuSans-52"/>
      <use x="69.482422" xlink:href="#DejaVuSans-44"/>
      <use x="146.484375" xlink:href="#DejaVuSans-44"/>
      <use x="223.486328" xlink:href="#DejaVuSans-2d"/>
      <use x="247.695312" xlink:href="#DejaVuSans-59"/>
      <use x="303.279297" xlink:href="#DejaVuSans-4f"/>
      <use x="381.990234" xlink:href="#DejaVuSans-4c"/>
      <use x="434.078125" xlink:href="#DejaVuSans-4f"/>
      <use x="512.789062" xlink:href="#DejaVuSans-76"/>
      <use x="571.96875" xlink:href="#DejaVuSans-35"/>
      <use x="635.591797" xlink:href="#DejaVuSans-6d"/>
      <use x="733.003906" xlink:href="#DejaVuSans-5f"/>
      <use x="783.003906" xlink:href="#DejaVuSans-32"/>
      <use x="846.626953" xlink:href="#DejaVuSans-20"/>
      <use x="878.414062" xlink:href="#DejaVuSans-20"/>
      <use x="910.201172" xlink:href="#DejaVuSans-61"/>
      <use x="971.480469" xlink:href="#DejaVuSans-6c"/>
      <use x="999.263672" xlink:href="#DejaVuSans-6c"/>
      <use x="1027.046875" xlink:href="#DejaVuSans-20"/>
      <use x="1058.833984" xlink:href="#DejaVuSans-63"/>
      <use x="1113.814453" xlink:href="#DejaVuSans-6c"/>
      <use x="1141.597656" xlink:href="#DejaVuSans-61"/>
      <use x="1202.876953" xlink:href="#DejaVuSans-73"/>
      <use x="1254.976562" xlink:href="#DejaVuSans-73"/>
      <use x="1307.076172" xlink:href="#DejaVuSans-65"/>
      <use x="1368.599609" xlink:href="#DejaVuSans-73"/>
      <use x="1420.699219" xlink:href="#DejaVuSans-20"/>
      <use x="1452.486328" xlink:href="#DejaVuSans-30"/>
      <use x="1516.109375" xlink:href="#DejaVuSans-2e"/>
      <use x="1547.896484" xlink:href="#DejaVuSans-38"/>
      <use x="1611.519531" xlink:href="#DejaVuSans-36"/>
      <use x="1675.142578" xlink:href="#DejaVuSans-36"/>
      <use x="1738.765625" xlink:href="#DejaVuSans-20"/>
      <use x="1770.552734" xlink:href="#DejaVuSans-6d"/>
      <use x="1867.964844" xlink:href="#DejaVuSans-41"/>
      <use x="1936.373047" xlink:href="#DejaVuSans-50"/>
      <use x="1996.675781" xlink:href="#DejaVuSans-40"/>
      <use x="2096.675781" xlink:href="#DejaVuSans-30"/>
      <use x="2160.298828" xlink:href="#DejaVuSans-2e"/>
      <use x="2192.085938" xlink:href="#DejaVuSans-35"/>
     </g>
    </g>
    <g id="line2d_21">
     <path d="M 56.38125 361.585938 
L 76.38125 361.585938 
" style="fill:none;stroke:#2ca02c;stroke-linecap:square;stroke-width:2;"/>
    </g>
    <g id="line2d_22"/>
    <g id="text_17">
     <!-- RDD-YOLOv5s  all classes 0.836 mAP@0.5 -->
     <g transform="translate(84.38125 365.085938)scale(0.1 -0.1)">
      <defs>
       <path d="M 2597 2516 
Q 3050 2419 3304 2112 
Q 3559 1806 3559 1356 
Q 3559 666 3084 287 
Q 2609 -91 1734 -91 
Q 1441 -91 1130 -33 
Q 819 25 488 141 
L 488 750 
Q 750 597 1062 519 
Q 1375 441 1716 441 
Q 2309 441 2620 675 
Q 2931 909 2931 1356 
Q 2931 1769 2642 2001 
Q 2353 2234 1838 2234 
L 1294 2234 
L 1294 2753 
L 1863 2753 
Q 2328 2753 2575 2939 
Q 2822 3125 2822 3475 
Q 2822 3834 2567 4026 
Q 2313 4219 1838 4219 
Q 1578 4219 1281 4162 
Q 984 4106 628 3988 
L 628 4550 
Q 988 4650 1302 4700 
Q 1616 4750 1894 4750 
Q 2613 4750 3031 4423 
Q 3450 4097 3450 3541 
Q 3450 3153 3228 2886 
Q 3006 2619 2597 2516 
z
" id="DejaVuSans-33" transform="scale(0.015625)"/>
      </defs>
      <use xlink:href="#DejaVuSans-52"/>
      <use x="69.482422" xlink:href="#DejaVuSans-44"/>
      <use x="146.484375" xlink:href="#DejaVuSans-44"/>
      <use x="223.486328" xlink:href="#DejaVuSans-2d"/>
      <use x="247.695312" xlink:href="#DejaVuSans-59"/>
      <use x="303.279297" xlink:href="#DejaVuSans-4f"/>
      <use x="381.990234" xlink:href="#DejaVuSans-4c"/>
      <use x="434.078125" xlink:href="#DejaVuSans-4f"/>
      <use x="512.789062" xlink:href="#DejaVuSans-76"/>
      <use x="571.96875" xlink:href="#DejaVuSans-35"/>
      <use x="635.591797" xlink:href="#DejaVuSans-73"/>
      <use x="687.691406" xlink:href="#DejaVuSans-20"/>
      <use x="719.478516" xlink:href="#DejaVuSans-20"/>
      <use x="751.265625" xlink:href="#DejaVuSans-61"/>
      <use x="812.544922" xlink:href="#DejaVuSans-6c"/>
      <use x="840.328125" xlink:href="#DejaVuSans-6c"/>
      <use x="868.111328" xlink:href="#DejaVuSans-20"/>
      <use x="899.898438" xlink:href="#DejaVuSans-63"/>
      <use x="954.878906" xlink:href="#DejaVuSans-6c"/>
      <use x="982.662109" xlink:href="#DejaVuSans-61"/>
      <use x="1043.941406" xlink:href="#DejaVuSans-73"/>
      <use x="1096.041016" xlink:href="#DejaVuSans-73"/>
      <use x="1148.140625" xlink:href="#DejaVuSans-65"/>
      <use x="1209.664062" xlink:href="#DejaVuSans-73"/>
      <use x="1261.763672" xlink:href="#DejaVuSans-20"/>
      <use x="1293.550781" xlink:href="#DejaVuSans-30"/>
      <use x="1357.173828" xlink:href="#DejaVuSans-2e"/>
      <use x="1388.960938" xlink:href="#DejaVuSans-38"/>
      <use x="1452.583984" xlink:href="#DejaVuSans-33"/>
      <use x="1516.207031" xlink:href="#DejaVuSans-36"/>
      <use x="1579.830078" xlink:href="#DejaVuSans-20"/>
      <use x="1611.617188" xlink:href="#DejaVuSans-6d"/>
      <use x="1709.029297" xlink:href="#DejaVuSans-41"/>
      <use x="1777.4375" xlink:href="#DejaVuSans-50"/>
      <use x="1837.740234" xlink:href="#DejaVuSans-40"/>
      <use x="1937.740234" xlink:href="#DejaVuSans-30"/>
      <use x="2001.363281" xlink:href="#DejaVuSans-2e"/>
      <use x="2033.150391" xlink:href="#DejaVuSans-35"/>
     </g>
    </g>
    <g id="line2d_23">
     <path d="M 56.38125 376.264063 
L 76.38125 376.264063 
" style="fill:none;stroke:#d62728;stroke-linecap:square;stroke-width:2;"/>
    </g>
    <g id="line2d_24"/>
    <g id="text_18">
     <!-- YOLOv5s  all classes 0.823 mAP@0.5 -->
     <g transform="translate(84.38125 379.764063)scale(0.1 -0.1)">
      <use xlink:href="#DejaVuSans-59"/>
      <use x="55.583984" xlink:href="#DejaVuSans-4f"/>
      <use x="134.294922" xlink:href="#DejaVuSans-4c"/>
      <use x="186.382812" xlink:href="#DejaVuSans-4f"/>
      <use x="265.09375" xlink:href="#DejaVuSans-76"/>
      <use x="324.273438" xlink:href="#DejaVuSans-35"/>
      <use x="387.896484" xlink:href="#DejaVuSans-73"/>
      <use x="439.996094" xlink:href="#DejaVuSans-20"/>
      <use x="471.783203" xlink:href="#DejaVuSans-20"/>
      <use x="503.570312" xlink:href="#DejaVuSans-61"/>
      <use x="564.849609" xlink:href="#DejaVuSans-6c"/>
      <use x="592.632812" xlink:href="#DejaVuSans-6c"/>
      <use x="620.416016" xlink:href="#DejaVuSans-20"/>
      <use x="652.203125" xlink:href="#DejaVuSans-63"/>
      <use x="707.183594" xlink:href="#DejaVuSans-6c"/>
      <use x="734.966797" xlink:href="#DejaVuSans-61"/>
      <use x="796.246094" xlink:href="#DejaVuSans-73"/>
      <use x="848.345703" xlink:href="#DejaVuSans-73"/>
      <use x="900.445312" xlink:href="#DejaVuSans-65"/>
      <use x="961.96875" xlink:href="#DejaVuSans-73"/>
      <use x="1014.068359" xlink:href="#DejaVuSans-20"/>
      <use x="1045.855469" xlink:href="#DejaVuSans-30"/>
      <use x="1109.478516" xlink:href="#DejaVuSans-2e"/>
      <use x="1141.265625" xlink:href="#DejaVuSans-38"/>
      <use x="1204.888672" xlink:href="#DejaVuSans-32"/>
      <use x="1268.511719" xlink:href="#DejaVuSans-33"/>
      <use x="1332.134766" xlink:href="#DejaVuSans-20"/>
      <use x="1363.921875" xlink:href="#DejaVuSans-6d"/>
      <use x="1461.333984" xlink:href="#DejaVuSans-41"/>
      <use x="1529.742188" xlink:href="#DejaVuSans-50"/>
      <use x="1590.044922" xlink:href="#DejaVuSans-40"/>
      <use x="1690.044922" xlink:href="#DejaVuSans-30"/>
      <use x="1753.667969" xlink:href="#DejaVuSans-2e"/>
      <use x="1785.455078" xlink:href="#DejaVuSans-35"/>
     </g>
    </g>
   </g>
  </g>
 </g>
 <defs>
  <clipPath id="p98e500ff3e">
   <rect height="376.244531" width="581.867188" x="47.38125" y="14.599219"/>
  </clipPath>
 </defs>
</svg>
